<?xml version="1.0" encoding="UTF-8" standalone="no"?>
<!-- Created with Inkscape (http://www.inkscape.org/) -->
<svg id="svg2" xmlns:rdf="http://www.w3.org/1999/02/22-rdf-syntax-ns#" xmlns="http://www.w3.org/2000/svg" height="16.334" viewBox="0 0 154.0025 16.334029" width="154" version="1.1" xmlns:cc="http://creativecommons.org/ns#" xmlns:dc="http://purl.org/dc/elements/1.1/">
 <metadata id="metadata8">
  <rdf:RDF>
   <cc:Work rdf:about="">
    <dc:format>image/svg+xml</dc:format>
    <dc:type rdf:resource="http://purl.org/dc/dcmitype/StillImage"/>
    <dc:title/>
   </cc:Work>
  </rdf:RDF>
 </metadata>
 <g id="g3356" stroke-width="1.3333" transform="matrix(.75847 0 0 .75847 -.73199 .040697)">
  <path id="path3370" fill="#f6dda4" d="m11 19.101c-1.6529-1.153-3-3.487-3-5.197 0-1.708-0.98-3.653-2.1777-4.3233-1.1977-0.6705-2.9688-3.1003-3.9356-5.3998-2.8623-6.8074 1.0739-5.3111 9.9853 3.7957 9.287 9.4924 10.951 13.391 5.67 13.286-1.948-0.038-4.892-1.011-6.542-2.162zm55.549 0.89923c-0.06471-0.73333-0.11765-4.9333-0.11765-9.3333s0.05295-8.6 0.11765-9.3333c0.068-0.766 4.593-1.333 10.642-1.333 12.002 0 12.155 0.14 12.122 11.109-0.02411 8.1363-1.6635 11.74-4.1907 9.2131-0.91054-0.91054-2.2855-1.6463-3.0555-1.6351-0.77 0.01123-0.5 0.60204 0.6 1.3129 1.4472 0.93522 0.34145 1.2722-4 1.2192-4.5662-0.05578-5.3627-0.34713-3.3333-1.2192 2.1739-0.93415 2.25-1.1632 0.41202-1.2396-1.2401-0.05154-2.6255 0.50629-3.0787 1.2396-0.45322 0.73333-1.9886 1.3333-3.412 1.3333s-2.6409-0.6-2.7056-1.3333zm25.333 0.28575c-0.839-6.79-1.088-14.893-0.531-17.286 0.653-2.7979 1.407-3 11.199-3 8.3434 0 10.665 0.43296 11.308 2.109 1.1363 2.9612 0.97226 15.571-0.22709 17.456-1.0807 1.699-21.543 2.377-21.748 0.72053zm53.658-2.662c-2.6011-0.86703-1.7574-2.7797 3.9644-8.9871 3.9905-4.3292 6.5254-5.9702 9.2222-5.9702 2.0455 0 3.9706 0.75 4.278 1.6667 0.70228 2.094-1.0895 10.286-2.5747 11.771-1.209 1.2091-12.396 2.3506-14.89 1.5194zm19.795-0.11288c0-0.63554 1.28-4.2355 2.8444-8l2.8444-6.8445h7.0769c3.8923 0 7.4517 0.60643 7.9098 1.3476 0.5272 0.85302 1.8884 0.60834 3.7087-0.66667 3.8017-2.6628 9.5481-2.5582 12.331 0.22447 2.6154 2.6154 1.9718 12.082-0.94719 13.933-2.8816 1.8269-8.0489 1.3204-10.663-1.0451-2.2689-2.0533-2.6078-2.0533-4.8766 0-1.756 1.5891-4.9275 2.2066-11.333 2.2066-4.8922 0-8.895-0.51999-8.895-1.1555zm32-12.178c0-0.73333-0.56459-1.3333-1.2546-1.3333-0.69005 0-1.6255 0.6-2.0787 1.3333-0.45323 0.73333 0.11133 1.3333 1.2546 1.3333s2.0787-0.6 2.0787-1.3333zm-146.94 10.4c0.88-0.88 1.6-2.887 1.6-4.46 0-3.604 4.3624-7.6579 7.5675-7.0322 2.2482 0.43885 2.7656 3.4109 1.8984 10.903-0.07287 0.6295-1.6325 0.76807-3.4658 0.30793-1.9222-0.48244-3.3333-0.2614-3.3333 0.52212 0 0.74731-1.32 1.3587-2.9333 1.3587-2.2815 0-2.5778-0.35556-1.3333-1.6zm-22.811-2c-1.5785-0.40899-2.2692-1.622-2-3.512 0.33551-2.3553 1.4395-2.962 5.9923-3.293 4.4776-0.32558 5.8649 0.12467 7.017 2.2774 2.2399 4.1853-3.3917 6.5014-11.009 4.5277zm90.257-0.988c-0.40567-1.0572-0.52863-3.0072-0.27323-4.3333 0.39864-2.07 1.8769-2.4112 10.446-2.4112 9.5065 0 10.003 0.15152 10.432 3.1825 0.61442 4.3454-1.6873 5.4398-11.492 5.4637-6.078 0.01481-8.5775-0.50679-9.1128-1.9017z"/>
  <path id="path3368" fill="#9ab0d2" d="m11.409 18.37c-1.1416-1.6298-2.0756-3.9335-2.0756-5.1193s-1.35-2.7753-3-3.5323c-3.5543-1.6305-7.1815-9.7184-4.3586-9.7184 2.3506 0 8.2952 5.984 14.308 14.403l4.95 6.9304h-3.8744c-2.4922 0-4.6149-1.0572-5.95-2.9633zm55.14 1.63c-0.06471-0.73333-0.11765-4.9333-0.11765-9.3333s0.05295-8.6 0.11765-9.3333c0.068-0.766 4.593-1.333 10.642-1.333 12.002 0 12.155 0.14 12.122 11.109-0.02411 8.1363-1.6635 11.74-4.1907 9.2131-0.91054-0.91054-2.2855-1.6463-3.0555-1.6351-0.77 0.01123-0.5 0.60204 0.6 1.3129 1.4472 0.93522 0.34145 1.2722-4 1.2192-4.5662-0.05578-5.3627-0.34713-3.3333-1.2192 2.1739-0.93415 2.25-1.1632 0.41202-1.2396-1.2401-0.05154-2.6255 0.50629-3.0787 1.2396-0.45322 0.73333-1.9886 1.3333-3.412 1.3333s-2.6409-0.6-2.7056-1.3333zm25.333 0.28575c-0.839-6.79-1.088-14.893-0.531-17.286 0.653-2.7979 1.407-3 11.199-3 8.3434 0 10.665 0.43296 11.308 2.109 1.1363 2.9612 0.97226 15.571-0.22709 17.456-1.0807 1.699-21.543 2.377-21.748 0.72053zm53.784-2.577c-2.7256-0.97732-1.9634-2.7797 3.8365-9.0718 4.0638-4.4087 6.5049-5.9702 9.3333-5.9702 3.8995 0 4.3432 0.76995 3.842 6.6667-0.51963 6.1133-2.4763 8.2563-6.693 7.3301-2.106-0.46256-4.9143-0.28214-6.2406 0.40092s-3.1615 0.973-4.0782 0.64432zm21.64-0.41909c-0.38136-0.61705 0.67762-4.0096 2.3533-7.5391 2.8886-6.0842 3.3224-6.4172 8.3602-6.4172 5.2415 0 5.3237 0.076585 6.0679 5.6521 0.4149 3.1086 0.35604 6.2966-0.1308 7.0843-1.0715 1.7337-15.672 2.8034-16.651 1.2199zm-116.91-1.557c0.88-0.88 1.6-2.887 1.6-4.46 0-3.604 4.3624-7.6579 7.5675-7.0322 2.2482 0.43885 2.7656 3.4109 1.8984 10.903-0.07287 0.6295-1.6325 0.76807-3.4658 0.30793-1.9222-0.48244-3.3333-0.2614-3.3333 0.52212 0 0.74731-1.32 1.3587-2.9333 1.3587-2.2815 0-2.5778-0.35556-1.3333-1.6zm-22.811-2c-1.5785-0.40899-2.2692-1.622-2-3.512 0.33551-2.3553 1.4395-2.962 5.9923-3.293 4.4776-0.32558 5.8649 0.12467 7.017 2.2774 2.2399 4.1853-3.3917 6.5014-11.009 4.5277zm97.994-1.3731c-5.7938-0.41272-7.0045-0.9163-6.6484-2.7654 0.35596-1.8483 2.0131-2.2607 9.0838-2.2607 7.7396 0 8.6484 0.27829 8.6484 2.6484 0 2.9298-0.83081 3.1081-11.084 2.3777zm77.084-0.27712c0-0.68806-1.4674-1.1381-3.2609-1-4.6214 0.35574-4.3345-1.866 0.5036-3.9003 4.04-1.6951 4.1-1.6622 4.1 2.215 0 2.1646-0.3 3.9356-0.66667 3.9356s-0.66667-0.56296-0.66667-1.251zm-9-10.335c1.2833-0.33537 3.3833-0.33537 4.6667 0 1.2833 0.33537 0.23333 0.60976-2.3333 0.60976-2.5667 0-3.6167-0.27439-2.3333-0.60976z"/>
  <path id="path3366" fill="#ebb140" d="m11.249 18.059c-2.1943-3.349-1.6743-6.0587 1.1629-6.0586 0.87339 0.000021 3.2636 2.1 5.3115 4.6667l3.7235 4.6666h-4.0261c-2.804 0-4.6774-0.99404-6.1718-3.2747zm55.418 1.8537c0-3.7758 3.0926-6.6156 8.0716-7.4118 2.9264-0.46796 5.6266-1.3457 6.0004-1.9505 0.984-1.5938-5.472-5.4849-8.321-5.0157-3.1 0.5104-5.751-1.156-5.751-3.614 0-1.5127 2.268-1.9213 10.666-1.9213h10.667v10.667c0 10.95-0.78516 12.652-3.6906 8-0.91595-1.4667-2.7103-2.6467-3.9874-2.6223-1.9388 0.03704-1.8025 0.47718 0.82568 2.6667l3.1477 2.6223-5.8144-0.13291c-4.8913-0.11181-5.2852-0.30239-2.481-1.2004 3.103-0.99376 3.1315-1.0767 0.41202-1.2004-1.6067-0.0731-3.2921 0.46709-3.7454 1.2004-1.1018 1.7827-6 1.7111-6-0.08765zm26-9.246v-10.667h10.333 10.333v10.667 10.667h-4.588c-2.5234 0-4.9588-0.6-5.412-1.3333-0.45322-0.73333-1.5386-1.3241-2.412-1.3129-0.95416 0.01227-0.7897 0.5363 0.41202 1.3129 1.4755 0.95352 0.60124 1.2979-3.3333 1.3129l-5.3333 0.02042v-10.667zm74.64 6.623c-0.38136-0.61705 0.67762-4.0096 2.3533-7.5391 2.8886-6.0842 3.3224-6.4172 8.3602-6.4172 5.2415 0 5.3237 0.076585 6.0679 5.6521 0.4149 3.1086 0.35604 6.2966-0.1308 7.0843-1.0715 1.7337-15.672 2.8034-16.651 1.2199zm-16.5-7.4316c6.2382-6.3563 11.528-7.5901 10.823-2.5247-1.1154 8.0202-1.1243 8.0283-9.0965 8.2612l-7.5738 0.22132 5.8472-5.9579zm6.5273 1.4753c0-2.5883-2.1556-2.5883-3.1488 0-0.46749 1.2183-0.003 2 1.1907 2 1.077 0 1.9582-0.9 1.9582-2zm-102.08 0.081c-2.427-1.795-2.45-2.066-0.364-4.1831 3.1302-3.1777 6.2727-1.6425 5.4498 2.6624-0.75562 3.9528-1.5069 4.1771-5.0916 1.5199zm70.328 0.94461c-5.7938-0.41272-7.0045-0.9163-6.6484-2.7654 0.35596-1.8483 2.0131-2.2607 9.0838-2.2607 7.7396 0 8.6484 0.27829 8.6484 2.6484 0 2.9298-0.83081 3.1081-11.084 2.3777zm77.084-0.27712c0-0.68806-1.4674-1.1381-3.2609-1-4.6214 0.35574-4.3345-1.866 0.5036-3.9003 4.04-1.6951 4.1-1.6622 4.1 2.215 0 2.1646-0.3 3.9356-0.66667 3.9356s-0.66667-0.56296-0.66667-1.251zm-172.67-1.426c-1.043-1.6876 2.6689-3.1998 5.3392-2.1751 1.1 0.42211 2 1.3863 2 2.1427 0 1.7717-6.2472 1.7993-7.3392 0.03243zm-26.458-5.0964c-2.3588-2.6065-2.9326-5.5617-1.08-5.5617 1.6014 0 5.54 4.5772 5.54 6.4383 0 2.2884-1.9409 1.9069-4.46-0.87664zm190.13-3.8141c1.2833-0.33537 3.3833-0.33537 4.6667 0 1.2833 0.33537 0.23333 0.60976-2.3333 0.60976-2.5667 0-3.6167-0.27439-2.3333-0.60976z"/>
  <path id="path3364" fill="#6391bc" d="m11.249 18.059c-2.1943-3.349-1.6743-6.0587 1.1629-6.0586 0.87339 0.000021 3.2636 2.1 5.3115 4.6667l3.7235 4.6666h-4.0261c-2.804 0-4.6774-0.99404-6.1718-3.2747zm55.418 1.8537c0-3.7758 3.0926-6.6156 8.0716-7.4118 2.9264-0.46796 5.6266-1.3457 6.0004-1.9505 0.984-1.5938-5.472-5.4849-8.321-5.0157-3.1 0.5104-5.751-1.156-5.751-3.614 0-1.5127 2.268-1.9213 10.666-1.9213h10.667v10.667c0 10.95-0.78516 12.652-3.6906 8-0.91595-1.4667-2.7103-2.6467-3.9874-2.6223-1.9388 0.03704-1.8025 0.47718 0.82568 2.6667l3.1477 2.6223-5.8144-0.13291c-4.8913-0.11181-5.2852-0.30239-2.481-1.2004 3.103-0.99376 3.1315-1.0767 0.41202-1.2004-1.6067-0.0731-3.2921 0.46709-3.7454 1.2004-1.1018 1.7827-6 1.7111-6-0.08765zm26-9.246v-10.667h10.333 10.333v10.667 10.667h-4.588c-2.5234 0-4.9588-0.6-5.412-1.3333-0.45322-0.73333-1.5386-1.3241-2.412-1.3129-0.95416 0.01227-0.7897 0.5363 0.41202 1.3129 1.4755 0.95352 0.60124 1.2979-3.3333 1.3129l-5.3333 0.02042v-10.667zm74.698 6.7167c-1.1787-1.9072 5.7087-14.717 7.9129-14.717 2.965 0 3.3788 1.7838 1.6085 6.9333-2.6701 7.7668-7.2286 11.493-9.5214 7.7834zm-16.55-7.5259c6.2382-6.3563 11.528-7.5901 10.823-2.5247-1.1154 8.0202-1.1243 8.0283-9.0965 8.2612l-7.5738 0.22132 5.8472-5.9579zm6.5273 1.4753c0-2.5883-2.1556-2.5883-3.1488 0-0.46749 1.2183-0.003 2 1.1907 2 1.077 0 1.9582-0.9 1.9582-2zm-102.08 0.081c-2.427-1.794-2.45-2.065-0.364-4.1821 3.1302-3.1777 6.2727-1.6425 5.4498 2.6624-0.75562 3.9528-1.5069 4.1771-5.0916 1.5199zm70.994 0.84945c-6.4547-0.33509-7.6783-0.7811-7.3158-2.6667 0.62821-3.2678 17.468-3.3596 18.107-0.098711 0.54562 2.7847-1.3012 3.258-10.791 2.7654zm-96.256-1.607c-1.043-1.6876 2.6689-3.1998 5.3392-2.1751 1.1 0.42211 2 1.3863 2 2.1427 0 1.7717-6.2472 1.7993-7.3392 0.03243zm-26.456-5.0944c-2.3588-2.6065-2.9326-5.5617-1.08-5.5617 1.6014 0 5.54 4.5772 5.54 6.4383 0 2.2884-1.9409 1.9069-4.46-0.87664z"/>
  <path id="path3362" fill="#5677b6" d="m11.249 18.059c-2.1943-3.349-1.6743-6.0587 1.1629-6.0586 0.87339 0.000021 3.2636 2.1 5.3115 4.6667l3.7235 4.6666h-4.0261c-2.804 0-4.6774-0.99404-6.1718-3.2747zm56.84 1.8863c0.80959-0.50035 1.389-1.4427 1.2877-2.094-0.10137-0.65134 0.74738-1.3783 1.8861-1.6154 1.1507-0.2396 2.0704 0.46672 2.0704 1.59 0 1.4081 1.7187 2.1773 5.6667 2.5361 3.3129 0.30107 1.9181 0.51041-3.3581 0.50399-4.9636-0.006-8.3624-0.42035-7.5528-0.9207zm17.244 0.05507c0-0.73333 0.6-1.3333 1.3333-1.3333 0.73333 0 1.3333 0.6 1.3333 1.3333 0 0.73333-0.6 1.3333-1.3333 1.3333-0.73333 0-1.3333-0.6-1.3333-1.3333zm7.3333 0c-0.453-0.733-0.228-1.333 0.5-1.333 0.7279 0 1.5244-1.65 1.7699-3.6667l0.44643-3.6667 2.9261 4.6049c2.9499 4.6423 2.9915 7.2284 0.06928 4.3062-1.9178-1.9178-4.1914-2.1003-3.0444-0.24444 0.45322 0.73333 0.22404 1.3333-0.50929 1.3333s-1.7042-0.6-2.1574-1.3333zm10.504-0.777c-0.50218-1.406-1.8182-3.61-2.9244-4.8978-3.3957-3.953-0.62067-4.1959 3.0228-0.26455 3.846 4.1499 5.4528 3.6781 4.2187-1.2386-1.27-5.0695-4.72-7.8064-9.038-7.1727-3.439 0.5047-4.021 0.1088-3.671-2.5002 0.062-0.468-0.688-1.3589-1.667-1.9796-1.056-0.66947 2.695-1.137 9.216-1.1491l11-0.0204v10.667 10.667l-3.6667-0.02041c-2.8572-0.01591-3.2252-0.30574-1.6667-1.3129 1.1-0.71088 1.37-1.3017 0.6-1.3129s-2.1003 0.67991-2.9563 1.5359c-1.1862 1.1862-1.7734 0.94834-2.4693-1zm64.19-1.8396c-1.1787-1.9072 5.7087-14.717 7.9129-14.717 2.965 0 3.3788 1.7838 1.6085 6.9333-2.6701 7.7668-7.2286 11.493-9.5214 7.7834zm-83.141-2.2992c-0.85621-1.5998-1.5567-3.8344-1.5567-4.9657 0-2.959-6.124-6.5713-9.5996-5.6624-2.9 0.7593-6.396-1.036-6.396-3.2859 0-0.64357 4.699-1.1701 10.443-1.1701h10.443l-0.544 7.6667c-0.724 10.192-0.962 10.825-2.786 7.4173zm67.781-0.417c0-0.73333 0.93541-1.3333 2.0787-1.3333s1.7079 0.6 1.2546 1.3333c-0.45323 0.73333-1.3886 1.3333-2.0787 1.3333-0.69006 0-1.2546-0.6-1.2546-1.3333zm-2-2.6667c1.3273-1.4667 2.7133-2.6667 3.08-2.6667 0.36667 0-0.41932 1.2-1.7466 2.6667s-2.7133 2.6667-3.08 2.6667c-0.36667 0 0.41932-1.2 1.7466-2.6667zm-23.751 0.26428c-6.4547-0.33509-7.6783-0.7811-7.3158-2.6667 0.62821-3.2678 17.468-3.3596 18.107-0.098711 0.54562 2.7847-1.3012 3.258-10.791 2.7654zm-94.917-1.597c-0.45323-0.73333 0.41136-1.3333 1.9213-1.3333s2.7454 0.6 2.7454 1.3333c0 0.73333-0.86459 1.3333-1.9213 1.3333s-2.2921-0.6-2.7454-1.3333zm24.043 0.07038c-1.1723-1.8969 0.32264-4.0704 2.7996-4.0704 1.1682 0 1.8374 0.93675 1.588 2.2228-0.51936 2.678-3.1816 3.799-4.3876 1.8475zm101.29-2.7759c-2.41-0.91121-2.4464-1.0983-0.37732-1.9438 2.9963-1.2244 5.2128-0.41162 4.0013 1.4673-0.56782 0.88066-2.0422 1.0745-3.6239 0.47645zm-154.25-6.2038c0.9625-0.3851 2.1125-0.3378 2.5556 0.1053 0.4431 0.443-0.3444 0.7582-1.75 0.7003-1.5533-0.064-1.8693-0.3799-0.8056-0.8056z"/>
  <path id="path3360" fill="#c44b4f" d="m11.249 18.059c-2.1943-3.349-1.6743-6.0587 1.1629-6.0586 0.87339 0.000021 3.2636 2.1 5.3115 4.6667l3.7235 4.6666h-4.0261c-2.804 0-4.6774-0.99404-6.1718-3.2747zm57.418 1.9414c0.45322-0.73333 1.8386-1.3241 3.0787-1.3129 1.943 0.01759 1.9782 0.19905 0.25464 1.3129-2.6112 1.6875-4.3762 1.6875-3.3333 0zm8.3489 0.39032c1.6586-0.31892 4.0586-0.30682 5.3333 0.02691 1.2748 0.33372-0.08221 0.59466-3.0155 0.57986s-3.9763-0.28785-2.3178-0.60677zm8.3178-0.39032c0-0.73333 0.6-1.3333 1.3333-1.3333 0.73333 0 1.3333 0.6 1.3333 1.3333 0 0.73333-0.6 1.3333-1.3333 1.3333-0.73333 0-1.3333-0.6-1.3333-1.3333zm7.3428 0.01527c-0.46712-0.75581 0.06808-0.97934 1.2546-0.52401 2.3099 0.88639 2.7325 1.8421 0.81461 1.8421-0.69005 0-1.6212-0.59313-2.0692-1.3181zm11.323-0.237c0-0.61111 0.56459-1.1111 1.2546-1.1111 0.69006 0 1.5637 0.5 1.9414 1.1111 0.37769 0.61111-0.1869 1.1111-1.2546 1.1111-1.0678 0-1.9414-0.5-1.9414-1.1111zm5.3333-3.0243c0-6.8498-2.0819-11.049-6.6485-13.411-2.25-1.1654-4.524-1.8692-5.052-1.5643-0.529 0.3048-2.161 0.0715-3.628-0.5185-1.697-0.68282 1.211-1.1068 8-1.1665l10.67-0.0937v10.667c0 7.6444-0.47222 10.667-1.6667 10.667-1.0099 0-1.6667-1.8049-1.6667-4.5799zm58.031 0.62986c-1.1787-1.9072 5.7087-14.717 7.9129-14.717 2.965 0 3.3788 1.7838 1.6085 6.9333-2.6701 7.7668-7.2286 11.493-9.5214 7.7834zm-15.36-2.717c0-0.73333 0.93541-1.3333 2.0787-1.3333s1.7079 0.6 1.2546 1.3333c-0.45323 0.73333-1.3886 1.3333-2.0787 1.3333-0.69006 0-1.2546-0.6-1.2546-1.3333zm-25.751-2.4024c-6.4547-0.33509-7.6783-0.7811-7.3158-2.6667 0.62821-3.2678 17.468-3.3596 18.107-0.098711 0.54562 2.7847-1.3012 3.258-10.791 2.7654zm-70.25-3.5983c0-1.1 0.6-2 1.3333-2 0.73333 0 1.3333 0.9 1.3333 2s-0.6 2-1.3333 2c-0.73333 0-1.3333-0.9-1.3333-2zm26.955-2.0342c-1.182-1.8919-3.111-2.6325-6.857-2.6325-5.8953 0-9.4311-1.0532-9.4311-2.8093 0-0.65489 4.84-1.1907 10.756-1.1907 10.538 0 10.738 0.060956 9.839 3-1.759 5.7478-2.563 6.426-4.307 3.6325zm-80.535-4.8769c0.9625-0.3851 2.1125-0.3378 2.5556 0.1053s-0.3444 0.7582-1.75 0.7003c-1.5533-0.064-1.8693-0.3799-0.8056-0.8056z"/>
  <path id="path3358" fill="#1b5eaa" d="m68.667 20c0.45322-0.73333 1.8386-1.3241 3.0787-1.3129 1.943 0.01759 1.9782 0.19905 0.25464 1.3129-2.6112 1.6875-4.3762 1.6875-3.3333 0zm8.3489 0.39032c1.6586-0.31892 4.0586-0.30682 5.3333 0.02691 1.2748 0.33372-0.08221 0.59466-3.0155 0.57986s-3.9763-0.28785-2.3178-0.60677zm8.318-0.39c0-0.73333 0.6-1.3333 1.3333-1.3333 0.73333 0 1.3333 0.6 1.3333 1.3333 0 0.73333-0.6 1.3333-1.3333 1.3333-0.73333 0-1.3333-0.6-1.3333-1.3333zm7.3428 0.01527c-0.46712-0.75581 0.06808-0.97934 1.2546-0.52401 2.3099 0.88639 2.7325 1.8421 0.81461 1.8421-0.69005 0-1.6212-0.59313-2.0692-1.3181zm11.323-0.237c0-0.61111 0.56459-1.1111 1.2546-1.1111 0.69006 0 1.5637 0.5 1.9414 1.1111 0.37769 0.61111-0.1869 1.1111-1.2546 1.1111-1.0678 0-1.9414-0.5-1.9414-1.1111zm5.3333-3.0243c0-6.8498-2.0819-11.049-6.6485-13.411-2.25-1.1654-4.524-1.8692-5.052-1.5643-0.529 0.3048-2.161 0.0715-3.628-0.5185-1.697-0.68282 1.211-1.1068 8-1.1665l10.67-0.0937v10.667c0 7.6444-0.47222 10.667-1.6667 10.667-1.0099 0-1.6667-1.8049-1.6667-4.5799zm-53.33-8.0873c0-1.1 0.6-2 1.3333-2 0.73333 0 1.3333 0.9 1.3333 2s-0.6 2-1.3333 2c-0.73333 0-1.3333-0.9-1.3333-2zm26.955-2.0342c-1.182-1.8919-3.111-2.6325-6.857-2.6325-5.8953 0-9.4311-1.0532-9.4311-2.8093 0-0.65489 4.84-1.1907 10.756-1.1907 10.538 0 10.738 0.060956 9.839 3-1.759 5.7478-2.563 6.426-4.307 3.6325zm-80.535-4.8767c0.9625-0.3852 2.1125-0.3378 2.5556 0.1052 0.4431 0.4431-0.3444 0.7582-1.75 0.7003-1.5533-0.064-1.8693-0.3799-0.8056-0.8056z"/>
 </g>
</svg>
