<?xml version="1.0" encoding="UTF-8" standalone="no"?>
<svg id="svg2" xmlns:rdf="http://www.w3.org/1999/02/22-rdf-syntax-ns#" xmlns="http://www.w3.org/2000/svg" enable-background="new 0 0 100 100" xml:space="preserve" height="80" width="80" version="1.1" y="0px" x="0px" xmlns:cc="http://creativecommons.org/ns#" xmlns:dc="http://purl.org/dc/elements/1.1/" viewBox="0 0 80 80.000001"><metadata id="metadata14"><rdf:RDF><cc:Work rdf:about=""><dc:format>image/svg+xml</dc:format><dc:type rdf:resource="http://purl.org/dc/dcmitype/StillImage"/><dc:title/></cc:Work></rdf:RDF></metadata><path id="path4" d="m0 38.639s0.64625-0.68928 1.3409-0.43562c2.2973 0.83807 12.138 4.5112 12.138 4.5112l-0.5611-9.2573s2.447-1.2773 3.1129-0.48043c1.8151 2.1745 7.012 8.4362 7.012 8.4362l7.572-2.72-30.052-17.134s3.2698-1.8222 4.8733-1.1097c0.70989 0.31551 33.333 13.261 33.333 13.261s3.6839-1.3633 4.9988-1.7138c1.0505-0.27965 2.5527-0.45444 3.4168 0.44816 0.13804 0.14431 0.5118 0.61398 0.5118 0.61398s11.37-3.6597 15.218-4.6734c1.937-0.51091 7.9513-2.0347 9.1452-1.6277 0 0 0.78249 0.21243 1.3436 0.61398 0.3182 0.22767 0.89185 0.23753 1.3212 0.27159 0.48581 0.03765 1.9092 0.27607 2.5366 0.41769 0.94473 0.21422 1.4673 0.46968 1.7927 0.59695 0.32626 0.12728 0.65253 0.43382 0.85241 0.81386s0.0735 0.83-0.30027 1.2889c-0.59516 0.61309-1.1572 1.3409-2.1449 2.0813-1.6474 1.236-5.4407 3.1963-8.1808 4.2818-2.4792 0.98238-16.601 5.5832-19.427 6.3612l1.4771 2.6585s3.8363-1.1858 4.409-1.2746c1.0944-0.16851 2.0929-0.25456 2.9355 0.0726 0.49836 0.19361 1.0057 0.66328 1.3248 1.2441 0.16941 0.30834 0.7807 1.8402 0.02779 3.0663-0.60233 0.98148-3.0394 1.5838-4.4108 1.8115-0.56379 0.09322-2.412 0.46609-2.412 0.46609s2.4075 5.7356 3.1515 7.6717c0.33792 0.8784-3.6185 0.36301-3.6185 0.36301l-11.111-13.717-20.66 3.561s2.3448 3.4706 2.3959 3.5486c0.46161 0.70899-1.2647 0.52256-1.2647 0.52256l-5.1377-3.8399s-1.833-0.02062-3.6131-0.04213c-0.48939-0.0063-1.2602-0.28055-1.3911-1.0846-0.10308-0.61846-0.05199-1.2719 0.36212-1.6125 0.108-0.089-12.318-8.262-12.318-8.262zm58.205 8.9104c0.24201 0.9035 0.76277 1.548 1.1634 1.4386 0.40066-0.10666 0.52973-0.92591 0.28862-1.8276-0.2429-0.9017-0.76277-1.5462-1.1643-1.4386-0.40066 0.10666-0.52973 0.92591-0.28772 1.8276zm5.9382-17.927 8.3403-1.9083-0.5136-0.32447-1.9011 0.27338-6.0341 1.4852 0.10846 0.47416zm-15.936 4.8688 14.918-4.6394-0.04661-0.48222-15.039 4.5471 0.16761 0.57455zm-2.3815 0.17299c0.23753 0.91963 0.81924 1.5569 1.297 1.4252 0.47864-0.13266 0.67314-0.98596 0.43472-1.9047-0.23842-0.92053-0.81835-1.5578-1.297-1.4261-0.47864 0.13266-0.67314 0.98596-0.43472 1.9056zm-15.231 5.706v-0.5369l-12.662 4.7443-0.1219 0.55841 12.784-4.7658z" fill-rule="evenodd" clip-rule="evenodd" stroke-width=".89633" fill="#4d4d4d"/></svg>
