<?xml version="1.0" encoding="UTF-8" standalone="no"?>
<!-- Created with Inkscape (http://www.inkscape.org/) -->
<svg id="svg2" xmlns:rdf="http://www.w3.org/1999/02/22-rdf-syntax-ns#" xmlns="http://www.w3.org/2000/svg" height="399.45" viewBox="0 0 399.44522 399.44522" width="399.45" version="1.1" xmlns:cc="http://creativecommons.org/ns#" xmlns:dc="http://purl.org/dc/elements/1.1/">
 <metadata id="metadata8">
  <rdf:RDF>
   <cc:Work rdf:about="">
    <dc:format>image/svg+xml</dc:format>
    <dc:type rdf:resource="http://purl.org/dc/dcmitype/StillImage"/>
    <dc:title/>
   </cc:Work>
  </rdf:RDF>
 </metadata>
 <g id="g12" stroke-width="1.3315">
  <path id="path16" fill="#969696" d="m0 199.72v-199.72h399.45v399.45h-399.45z"/>
  <path id="path14" fill="#151515" d="m195.28 344.52c-12.958-17.257-49.249-78.19-64.035-107.52-22.942-45.503-29.31-67.274-26.194-89.546 3.0576-21.852 11.842-39.539 27.328-55.026 37.711-37.711 96.98-37.711 134.69 0 24.404 24.404 33.6 57.588 24.64 88.919-8.6734 30.329-36.235 83.593-73.237 141.53-12.778 20.008-17.078 25.964-18.749 25.964-0.65778 0-2.6582-1.9473-4.4454-4.3273zm23.42-139.16c9.3927-4.1925 19.95-14.849 24.417-24.646 5.3893-11.82 5.3893-26.054 0-37.874-4.4364-9.7301-14.928-20.362-24.417-24.743-9.0728-4.1888-28.877-4.1888-37.949 0-9.4885 4.3807-19.98 15.013-24.417 24.743-5.3627 11.762-5.4046 26.119-0.10971 37.578 5.812 12.578 16.938 22.754 29.286 26.788 8.0902 2.6426 25.274 1.6868 33.189-1.8461z"/>
 </g>
</svg>
