<?xml version="1.0" encoding="UTF-8" standalone="no"?>
<!-- Created with Inkscape (http://www.inkscape.org/) -->
<svg id="svg74" xmlns:rdf="http://www.w3.org/1999/02/22-rdf-syntax-ns#" xmlns="http://www.w3.org/2000/svg" height="398.91" viewBox="0 0 399.21005 398.91183" width="399.21" version="1.1" xmlns:cc="http://creativecommons.org/ns#" xmlns:dc="http://purl.org/dc/elements/1.1/">
 <metadata id="metadata80">
  <rdf:RDF>
   <cc:Work rdf:about="">
    <dc:format>image/svg+xml</dc:format>
    <dc:type rdf:resource="http://purl.org/dc/dcmitype/StillImage"/>
    <dc:title/>
   </cc:Work>
  </rdf:RDF>
 </metadata>
 <g id="g343">
  <rect id="rect333" height="228.12" width="298.98" stroke="#fff" y="94.75" x="65.094" fill="#fff"/>
  <g id="g118" stroke-width="1.3315" transform="translate(-.17815 -.011599)">
   <path id="path124" d="m79.889 398.14c-22.736-3.17-38.66-10.72-53.331-25.31-11.678-11.61-18.103-22.88-22.788-39.96l-3.1043-11.32v-242.33l3.1339-11.314c3.9678-14.33 8.1534-23.223 15.579-33.102 9.673-12.867 23.742-22.981 39.147-28.143 18.987-6.3607 30.077-6.8226 151.47-6.3095 112.66 0.47628 112.91 0.48312 123.54 3.5016 16.262 4.6174 27.832 11.31 39.35 22.762 11.678 11.612 18.104 22.878 22.788 39.959l3.1042 11.318v243.66l-3.1042 11.318c-4.6848 17.08-11.11 28.347-22.788 39.959-11.516 11.45-23.083 18.142-39.35 22.765l-10.652 3.0272-117.84 0.26698c-64.81 0.16-121.13-0.18-125.16-0.74zm192.4-93.05c5.3212-2.418 14.844-11.424 21.338-20.178 7.9398-10.704 57.885-101.81 57.885-105.58 0-6.115-3.9449-2.3598-28.872 27.483-53.509 64.063-52.942 63.476-61.42 63.476-5.3512 0-12.959-6.3765-20.386-17.087-3.3858-4.8825-19.486-31.918-35.779-60.08-16.293-28.161-32.875-55.844-36.85-61.517-16.125-23.012-33.308-32.529-50.196-27.8-11.382 3.1869-19.524 12.493-24.505 28.01-4.8149 15-6.1261 27.32-6.2109 58.361l-0.08128 29.734 3.7358 3.2205c5.3498 4.6119 13.949 4.4788 18.718-0.28974l3.5103-3.5103v-32.374c0-36.067 1.0283-43.789 6.6299-49.785 10.792-11.553 18.659-2.5738 60.635 69.208 33.439 57.181 44.173 73.847 55.06 85.486 13.46 14.389 25.056 18.559 36.787 13.228z" fill="#cfcfcf"/>
   <path id="path122" d="m85.118 398.06c-44.552-4.9-72.379-28.23-81.498-68.35-2.6462-11.64-2.7848-16.68-3.284-119.34-0.55011-113.14 0.1815-134.74 4.7825-141.13 6.5085-9.052 20.198-10.36 40.986-3.919 17.255 5.346 33.736 7.341 44.693 5.411 14.823-2.61 19.913-6.028 52.883-35.466 18.66-16.67 37.92-26.866 60.7-32.136 9.3442-2.1618 16.7-2.4644 59.917-2.4644 42.495 0 51.072 0.34136 62.419 2.4842 17.602 3.3242 33.204 11.081 44.551 22.15 14.232 13.883 20.805 26.311 25.115 47.485 2.195 10.785 2.3943 21.296 2.3943 126.27 0 120.49-0.15371 124.06-6.1072 142.02-8.9706 27.063-32.94 47.918-62.913 54.737-11.779 2.6799-16.038 2.7856-123.38 3.0618-61.148 0.15733-115.72-0.21269-121.26-0.82226zm190.75-94.35c8.3362-5.2867 17.994-17.282 28.838-35.817 12.652-21.625 48.138-87.351 48.138-89.159 0-3.0938-2.586-2.8666-6.6915 0.58796-2.3397 1.9688-17.499 19.498-33.688 38.955-35.524 42.695-41.182 48.822-46.78 50.67-11.391 3.7594-18.868-4.4464-44.27-48.582-33.612-58.401-44.965-77.665-50.271-85.305l-5.6111-8.0792 5.1833-7.2328c7.5516-10.538 17.141-19.882 20.403-19.882 1.5476 0 4.0963 1.3652 5.6639 3.0337 5.518 5.8737 7.1885 13.638 8.0845 37.577 0.83594 22.334 0.88813 22.641 3.9164 23.07 6.8544 0.97169 7.3195-0.9566 6.5209-27.035-0.45874-14.98-1.5207-27.138-2.8267-32.36-8.3154-33.247-26.846-33.612-54.451-1.0719l-6.9781 8.2254-5.7619-3.6421c-18.677-11.806-39.527-5.092-49.172 15.833-6.89 14.948-8.3945 25.078-9.1684 61.732-0.48955 23.186-0.24823 33.598 0.82518 35.603 3.6357 6.7933 15.735 8.6642 21.616 3.3423 1.3958-1.2632 6.1926-9.2278 10.659-17.699 4.4669-8.4713 12.652-23.684 18.189-33.807l10.068-18.405 2.3361 3.0926c1.2849 1.7009 13.844 22.865 27.909 47.032 50.523 86.807 63.843 103.07 84.492 103.16 5.1735 0.0225 8.1396-0.86497 12.828-3.8379zm-162.01-145.26c1.2558-12.556 3.2711-18.373 7.6394-22.048 4.3604-3.669 6.1788-3.9773 9.3502-1.5855 1.9801 1.4934 1.1764 3.2372-7.8242 16.976l-10.031 15.312z" fill="#828282"/>
   <path id="path120" d="m89.875 398.07c-29.395-2.22-45.433-8.84-62.717-25.91-12.946-12.79-19.166-24.3-23.386-43.28-2.6907-12.1-2.8387-16.98-3.4145-112.42-0.65603-108.74 0.39128-141.18 4.7517-147.22 1.3218-1.8308 4.4577-4.4179 6.9688-5.749 6.255-3.3159 22.427-2.3136 35.397 2.1938 17.703 6.1524 34.455 7.6126 47.779 4.1646 11.158-2.8875 19.514-8.3537 36.117-23.626 25.023-23.019 39.933-32.73 60.363-39.315 17.537-5.6531 29.115-6.9055 63.725-6.8932 75.074 0.026749 93.743 4.3884 116.75 27.278 17.563 17.472 23.511 32.593 25.911 65.875 1.6873 23.397 1.6873 189.72 0 213.12-2.4008 33.291-8.3291 48.35-25.982 66-12.967 12.965-24.546 19.228-43.264 23.401-12.224 2.725-16.21 2.831-118.5 3.1533-58.219 0.18343-112.44-0.16238-120.5-0.76847zm200.38-50.59c18.916-5.3304 34.504-15.998 40.017-27.384 7.7248-15.957-0.0768-33.703-19.681-44.767-7.1887-4.0571-7.8842-4.9048-5.8227-7.0982 1.3107-1.3945 42.393-76.826 46.2-84.829 1.8617-3.9132 2.0304-5.3577 0.77281-6.6154-2.3163-2.3163-8.1922 3.9563-45.186 48.238l-31.702 37.947h-26.262l-6.4334-9.1608c-3.5384-5.0384-9.2411-14.026-12.673-19.972-3.4316-5.9463-11.621-20.099-18.198-31.449-6.5776-11.351-12.162-21.018-12.409-21.482-0.24767-0.46415 3.3671-0.5375 8.0328-0.16298 11.734 0.94188 21.287-1.5881 27.628-7.3165 6.9069-6.24 7.1199-12.122 0.65939-18.215-4.1718-3.9345-12.301-7.4148-17.319-7.4148-1.8545 0-2.1795-1.818-2.202-12.316-0.0547-25.569-4.2068-42.361-12.655-51.178-4.5512-4.7499-6.3578-5.7433-10.445-5.7433-7.9792 0-15.333 4.7668-28.986 18.79l-12.833 13.18-7.4442-3.9159c-9.9762-5.2478-17.546-6.2764-25.862-3.5143-19.979 6.6361-29.019 27.046-30.68 69.273l-0.88847 22.579-5.1682 1.0707c-9.0968 1.8846-21.713 8.7867-26.691 14.602-17.709 20.689 4.3195 44.788 43.177 47.237 33.267 2.0962 61.653-15.798 57.783-36.426-1.348-7.1856-10.083-15.995-20.815-20.991l-8.9676-4.1752 11.629-20.934c10.314-18.567 11.824-20.667 13.353-18.577 0.94817 1.2962 8.3672 13.741 16.487 27.655 8.1195 13.914 22.623 38.48 32.23 54.591 9.6073 16.111 17.628 29.892 17.825 30.624 0.19636 0.73232-2.9567 3.0566-7.0069 5.165-26.267 13.674-31.47 39.298-11.547 56.874 10.296 9.083 26.003 15.814 43.463 18.625 11.368 1.8303 37.511 0.31773 48.621-2.813zm-45.927-25.703c-10.018-2.6003-16.075-5.9256-21.272-11.679-6.7227-7.4412-6.3965-15.332 0.9681-23.424l2.6638-2.9268 8.8203 9.0735c19.201 19.753 33.899 20.304 50.717 1.9015l7.0206-7.6817 2.5037 3.092c5.2249 6.4525 2.5096 17.526-5.924 24.16-9.4748 7.4529-31.597 11.092-45.497 7.484zm-156.45-86.02c-10.777-3.28-15.969-8.52-15.969-16.11 0-4.9237 3.8128-9.8073 10.231-13.105 4.3201-2.2195 4.4149-2.096 4.4149 5.7548 0 5.7432 0.66748 8.0249 3.2134 10.985 2.7211 3.1635 4.2297 3.7358 9.8463 3.7358 7.9868 0 10.612-2.03 16.518-12.772 4.1177-7.49 4.2383-7.5811 7.3448-5.5456 1.7371 1.1382 4.0645 3.8217 5.172 5.9634 5.9197 11.447-7.5821 22.366-27.448 22.197-5.4924-0.0469-11.488-0.54203-13.323-1.1004zm115.87-66.74c-8.2278-3.4736-10.029-8.2193-4.9346-13.005 4.3957-4.1295 6.0192-3.6047 6.4912 2.098 0.3923 4.74 0.64945 4.9931 5.0734 4.9931 4.4821 0 4.6856-0.21416 5.3259-5.6022l0.66574-5.6022 4.2837 2.0858c6.664 3.2448 7.4592 9.8781 1.6212 13.524-3.7634 2.3503-14.468 3.2218-18.527 1.5084zm-89.812-9.9764c1.8564-17.474 5.6372-24.564 13.099-24.564 2.3879 0 4.6959 0.35428 5.1289 0.78728 0.59167 0.59166-15.511 27.584-18.553 31.1-0.28434 0.32864-0.13833-2.9668 0.32446-7.3232zm65.043-12.246c-3.5081-5.6763-7.7647-12.175-9.4592-14.441-1.6945-2.2661-3.0808-4.7264-3.0808-5.4673 0-4.4802 20.592-27.028 24.683-27.028 7.4746 0 12.346 12.033 13.528 33.414l0.77952 14.108-6.067 1.5277c-3.3369 0.84023-7.853 3.0305-10.036 4.8673l-3.9689 3.3396z" fill="#5b5b5b"/>
  </g>
 </g>
</svg>
