<?xml version="1.0" encoding="UTF-8" standalone="no"?>
<svg id="svg2" xmlns:rdf="http://www.w3.org/1999/02/22-rdf-syntax-ns#" xmlns="http://www.w3.org/2000/svg" enable-background="new 0 0 100 100" xml:space="preserve" height="80" width="80" version="1.1" y="0px" x="0px" xmlns:cc="http://creativecommons.org/ns#" xmlns:dc="http://purl.org/dc/elements/1.1/" viewBox="0 0 80 80"><metadata id="metadata14"><rdf:RDF><cc:Work rdf:about=""><dc:format>image/svg+xml</dc:format><dc:type rdf:resource="http://purl.org/dc/dcmitype/StillImage"/><dc:title/></cc:Work></rdf:RDF></metadata><path id="path4" d="m40.004 0-40.004 30.881v49.119h80v-49.119l-39.996-30.881zm-11.067 22.038c1.1769-2.2187 2.7923-3.8873 4.8438-4.9976 2.0478-1.1205 4.3863-1.6798 7.0261-1.6798 2.2299 0 4.2186 0.45264 5.9587 1.3459 1.7402 0.90435 3.0623 2.176 3.9835 3.8344 0.91224 1.6584 1.376 3.4681 1.376 5.4279 0 2.3374-0.69786 4.4475-2.0882 6.3443-1.75 2.3801-3.9844 3.5757-6.7185 3.5757-0.73464 0-1.2854-0.12986-1.6603-0.39884-0.37046-0.26899-0.6252-0.65577-0.7454-1.1733-1.0414 1.0444-2.255 1.5722-3.6185 1.5722-1.4756 0-2.6928-0.52777-3.6615-1.5722-0.96875-1.0555-1.4585-2.4561-1.4585-4.1906 0-2.1649 0.58304-4.1257 1.7554-5.9019 1.4208-2.1649 3.2346-3.2538 5.4519-3.2538 1.5787 0 2.7448 0.6233 3.4947 1.8746l0.33906-1.5304h3.5162l-2.0111 9.8671c-0.12468 0.62423-0.18657 1.0231-0.18657 1.2058 0 0.23745 0.04754 0.39884 0.15069 0.51664 0.09867 0.11872 0.22335 0.17252 0.36418 0.17252 0.43235 0 0.97952-0.25878 1.6505-0.79768 0.90686-0.68823 1.6361-1.6371 2.1931-2.8002 0.56241-1.1733 0.84407-2.3912 0.84407-3.6517 0-2.2502-0.78576-4.1359-2.3645-5.6654-1.5841-1.5082-3.7916-2.2725-6.6198-2.2725-2.4057 0-4.4419 0.50644-6.1139 1.5295-1.6666 1.0017-2.9215 2.4339-3.7808 4.275-0.84407 1.83-1.2657 3.7482-1.2657 5.7414 0 1.9283 0.47899 3.6944 1.4164 5.2777 0.9535 1.5944 2.2757 2.7464 3.9791 3.4792 1.7088 0.72255 3.6624 1.088 5.8592 1.088 2.1151 0 3.9378-0.30238 5.469-0.91641 1.5258-0.61403 2.7556-1.5184 3.6875-2.7464h2.8282c-0.88443 1.8625-2.2452 3.3169-4.0777 4.3835-2.1043 1.2067-4.6715 1.8115-7.6872 1.8115-2.9332 0-5.4591-0.50736-7.5832-1.5304-2.1357-1.0231-3.7135-2.5322-4.755-4.5236-1.0369-1.9942-1.5527-4.1683-1.5527-6.5178-0.0036-2.5702 0.57946-4.9725 1.7617-7.2023zm-26.114 9.8235 29.516 20.466-29.516 23.622v-44.088zm2.2398 45.66 34.941-27.963 34.933 27.963h-69.875zm72.115-1.573-29.516-23.621 29.516-20.466v44.088zm-35.73-51.661c0.46913 0.5491 0.70324 1.3468 0.70324 2.381 0 0.92661-0.1776 1.9283-0.51667 2.995-0.33816 1.0769-0.7445 1.895-1.2127 2.4561-0.3283 0.38771-0.66736 0.67896-1.0046 0.86168-0.44401 0.25786-0.91224 0.38771-1.4172 0.38771-0.67723 0-1.2387-0.28012-1.7034-0.83014-0.45298-0.5491-0.67633-1.3997-0.67633-2.5646 0-0.87188 0.16056-1.8746 0.48886-3.0052 0.3283-1.1307 0.81806-1.9923 1.4639-2.6054 0.65032-0.61403 1.3536-0.91455 2.1142-0.91455 0.70862 0 1.2962 0.28012 1.7608 0.83849z" stroke-width=".91214" fill="#4d4d4d"/></svg>
