<?xml version="1.0" encoding="UTF-8" standalone="no"?>
<svg id="svg16" xmlns:rdf="http://www.w3.org/1999/02/22-rdf-syntax-ns#" xmlns="http://www.w3.org/2000/svg" y="0px" xml:space="preserve" height="32" viewBox="0 0 32 32.000056" width="32" version="1.1" enable-background="new 0 0 100 100" x="0px" xmlns:cc="http://creativecommons.org/ns#" xmlns:dc="http://purl.org/dc/elements/1.1/"><metadata id="metadata28"><rdf:RDF><cc:Work rdf:about=""><dc:format>image/svg+xml</dc:format><dc:type rdf:resource="http://purl.org/dc/dcmitype/StillImage"/><dc:title/></cc:Work></rdf:RDF></metadata><path id="path18" stroke-width=".35519" fill="#4d4d4d" d="m30.479 9.126-22.589 10.533c-0.7846 0.367-1.6723 0.238-2.3155-0.254l-0.0018 0.0025s-1.4826-1.1412-5.1879-3.9675c-0.78604-0.5999-0.25538-1.3415 0.58464-1.1824 1.5447 0.2912 3.6357 0.6908 5.5825 1.0648l4.6757-2.1802c-2.2764-1.7318-5.39-4.1024-7.5592-5.7565l2.0168-0.94056c4.2001 1.2723 8.777 2.6491 12.091 3.6436l7.0999-3.3111c3.9217-1.8282 6.4226-1.2091 6.9472-0.08418 0.47702 1.018-0.02877 1.8172-1.3444 2.432zm-16.026 8.78c-0.55872 0.25964-0.79989 0.92279-0.53989 1.4808 0.25964 0.55765 0.92243 0.79918 1.4811 0.54025 0.55907-0.26071 0.79989-0.9235 0.5406-1.4808-0.26036-0.55943-0.92279-0.80167-1.4819-0.54025zm3.1619-1.4726c-0.55801 0.26-0.79954 0.92314-0.53954 1.4819 0.25964 0.55801 0.92243 0.79918 1.4819 0.53954 0.55765-0.26 0.79954-0.9235 0.54025-1.4808-0.26142-0.55872-0.92314-0.8006-1.4826-0.5406zm1.2972 9.0897c0-0.47312-0.38361-0.85743-0.85779-0.85743h-16.727c-0.47347 0-0.85743 0.38432-0.85743 0.85743 0 0.47418 0.38432 0.85779 0.85743 0.85779h16.727c0.47418 0 0.85779-0.38361 0.85779-0.85779z"/></svg>
