<?xml version="1.0" encoding="UTF-8" standalone="no"?>
<svg id="svg2" xmlns:rdf="http://www.w3.org/1999/02/22-rdf-syntax-ns#" xmlns="http://www.w3.org/2000/svg" enable-background="new 0 0 95.152 100.001" xml:space="preserve" height="12" width="12" version="1.0" y="0px" x="0px" xmlns:cc="http://creativecommons.org/ns#" xmlns:dc="http://purl.org/dc/elements/1.1/" viewBox="0 0 12 12"><metadata id="metadata10"><rdf:RDF><cc:Work rdf:about=""><dc:format>image/svg+xml</dc:format><dc:type rdf:resource="http://purl.org/dc/dcmitype/StillImage"/><dc:title/></cc:Work></rdf:RDF></metadata><path id="path4" d="m1.8026 5.5025c2.0097-0.32592 4.3196-0.39168 4.3196-0.39168l-2.57-4.82 0.912 0.20868 3.8793 4.5858c2.6129 0.1428 3.3948 0.46872 3.3948 0.46872 0.27444 0.13152 0.2616 0.44316 0.2616 0.44316v0.0028 0.0028s0.01284 0.31176-0.2616 0.44316c0 0-0.78192 0.32592-3.3948 0.46872l-3.8795 4.5859-0.91188 0.20868 2.57-4.82s-2.3099-0.06576-4.3196-0.39168c0 0-1.3066 1.438-1.398 1.4108h-0.36588s-0.06588-0.06432-0.0258-0.2874l0.43032-1.2522s0.0528-0.23736 0.03852-0.36876c0.01428-0.13152-0.03852-0.36876-0.03852-0.36876l-0.43032-1.2522c-0.04008-0.22296 0.0258-0.2874 0.0258-0.2874h0.36576c0.09156-0.027 1.3981 1.411 1.3981 1.411z" stroke-width="0.12" fill="#4d4d4d"/></svg>
