<?xml version="1.0" encoding="UTF-8" standalone="no"?>
<svg xmlns:rdf="http://www.w3.org/1999/02/22-rdf-syntax-ns#" xmlns="http://www.w3.org/2000/svg" enable-background="new 0 0 90 90" xml:space="preserve" height="32" width="32" version="1.1" y="0px" x="0px" xmlns:cc="http://creativecommons.org/ns#" xmlns:dc="http://purl.org/dc/elements/1.1/" viewBox="0 0 32 32"><metadata><rdf:RDF><cc:Work rdf:about=""><dc:format>image/svg+xml</dc:format><dc:type rdf:resource="http://purl.org/dc/dcmitype/StillImage"/><dc:title/></cc:Work></rdf:RDF></metadata><g fill="#4d4d4d" transform="matrix(.44950 0 0 .44950 -4.2275 -4.4522)"><path d="m40.635 49.382 8.707-16.482c12.158-0.255 16.17-1.595 16.17-3.235 0-1.635-4.01-2.992-16.169-3.245l-8.709-16.515h-2.801l2.484 16.566c-3.111 0.116-5.954 0.419-8.34 0.732l-4.454-5.787-1.168 0.001 1.001 6.653c-1.82 0.492-2.868 1.034-2.868 1.647s1.048 1.061 2.869 1.554l-1.002 6.595h1.169l4.454-5.747c2.387 0.316 5.229 0.563 8.341 0.68l-2.484 16.582z"/><path d="m52.166 81.096h-2.8c-0.371 0-0.712-0.205-0.884-0.533l-8.433-15.963c-14.537-0.354-16.56-2.235-16.56-4.223 0-1.896 1.985-3.878 16.559-4.23l8.435-15.996c0.172-0.328 0.514-0.534 0.885-0.534h2.802c0.291 0 0.567 0.127 0.758 0.347 0.189 0.222 0.274 0.514 0.231 0.802l-2.319 15.47c2.127 0.109 4.349 0.312 6.742 0.615l4.104-5.332c0.188-0.244 0.48-0.39 0.791-0.39h0.002l1.168 0.001c0.291 0 0.566 0.127 0.756 0.348 0.19 0.222 0.274 0.515 0.231 0.801l-0.872 5.791c1.467 0.474 2.75 1.152 2.75 2.361 0 1.205-1.222 1.805-2.746 2.272l0.867 5.726c0.044 0.288-0.04 0.581-0.23 0.803-0.188 0.222-0.467 0.349-0.758 0.349h-1.168c-0.31 0-0.601-0.144-0.789-0.388l-4.104-5.295c-2.084 0.26-4.388 0.453-6.748 0.565l2.319 15.483c0.044 0.287-0.041 0.58-0.23 0.801-0.193 0.221-0.468 0.349-0.759 0.349zm-2.197-2h1.036l-2.314-15.436c-0.041-0.281 0.039-0.567 0.221-0.787 0.182-0.219 0.447-0.35 0.732-0.359 2.904-0.109 5.756-0.342 8.246-0.673 0.354-0.044 0.703 0.099 0.922 0.38l3.551 4.58-0.709-4.667c-0.076-0.503 0.236-0.983 0.729-1.114 0.98-0.267 1.53-0.47 1.838-0.612-0.302-0.16-0.854-0.392-1.838-0.658-0.49-0.132-0.804-0.61-0.729-1.113l0.711-4.722-3.551 4.613c-0.217 0.281-0.571 0.426-0.922 0.381-2.979-0.393-5.678-0.629-8.246-0.725-0.283-0.012-0.551-0.143-0.731-0.36-0.183-0.22-0.263-0.507-0.22-0.787l2.312-15.419h-1.036l-8.428 15.982c-0.17 0.32-0.5 0.524-0.864 0.532-14.468 0.302-15.168 2.171-15.19 2.25 0.022 0.069 0.711 1.927 15.191 2.231 0.363 0.008 0.693 0.212 0.863 0.533z"/></g></svg>
