<?xml version="1.0" encoding="UTF-8" standalone="no"?>
<svg id="svg2" xmlns:rdf="http://www.w3.org/1999/02/22-rdf-syntax-ns#" xmlns="http://www.w3.org/2000/svg" enable-background="new 0 0 100 100" xml:space="preserve" height="12" width="12" version="1.1" y="0px" x="0px" xmlns:cc="http://creativecommons.org/ns#" xmlns:dc="http://purl.org/dc/elements/1.1/" viewBox="0 0 12 12"><metadata id="metadata18"><rdf:RDF><cc:Work rdf:about=""><dc:format>image/svg+xml</dc:format><dc:type rdf:resource="http://purl.org/dc/dcmitype/StillImage"/><dc:title/></cc:Work></rdf:RDF></metadata><g id="g4" fill="#4d4d4d" transform="matrix(.13333 0 0 .13333 -.66643 -.66644)"><path id="path6" d="m50 5c-24.7 0-44.8 20.1-45 44.7-0.1 12 4.5 23.4 13 31.9 8.4 8.6 19.7 13.3 31.7 13.4h0.3c24.7 0 44.8-20.1 45-44.7 0.2-24.8-19.9-45.1-45-45.3zm0 83.9h-0.3c-10.4-0.1-20.1-4.2-27.5-11.6-7.2-7.3-11.2-17.1-11.1-27.5 0.1-21.3 17.6-38.7 39.2-38.7 21.5 0.1 38.8 17.7 38.7 39.2-0.2 21.3-17.7 38.6-39 38.6z"/><path id="path8" d="m71.2 48.8h-18.7v-25.9c0-1.6-1.3-2.9-2.9-2.9s-2.9 1.3-2.9 2.9v28.8c0 1.6 1.3 2.9 2.9 2.9h21.6c1.6 0 2.9-1.3 2.9-2.9s-1.3-2.9-2.9-2.9z"/></g></svg>
