<?xml version="1.0" encoding="UTF-8" standalone="no"?>
<svg id="svg2" xmlns:rdf="http://www.w3.org/1999/02/22-rdf-syntax-ns#" xmlns="http://www.w3.org/2000/svg" enable-background="new 0 0 95.152 100.001" xml:space="preserve" height="12" width="12" version="1.0" y="0px" x="0px" xmlns:cc="http://creativecommons.org/ns#" xmlns:dc="http://purl.org/dc/elements/1.1/" viewBox="0 0 12 12"><metadata id="metadata10"><rdf:RDF><cc:Work rdf:about=""><dc:format>image/svg+xml</dc:format><dc:type rdf:resource="http://purl.org/dc/dcmitype/StillImage"/><dc:title/></cc:Work></rdf:RDF></metadata><path id="path4" d="m6.4975 1.8026c0.32592 2.0097 0.39168 4.3196 0.39168 4.3196l4.82-2.57-0.20868 0.912-4.5858 3.8793c-0.1428 2.6125-0.4687 3.3945-0.4687 3.3945-0.1315 0.275-0.4431 0.262-0.4431 0.262h-0.0028-0.0028s-0.31176 0.01284-0.44316-0.2616c0 0-0.32592-0.78192-0.46872-3.3948l-4.5859-3.8795-0.20869-0.9119 4.82 2.57s0.06576-2.3099 0.39168-4.3196c0 0-1.438-1.3066-1.4108-1.398v-0.36588s0.06432-0.06588 0.2874-0.0258l1.2522 0.43032s0.23736 0.0528 0.36876 0.03852c0.13152 0.01428 0.36876-0.03852 0.36876-0.03852l1.2522-0.43032c0.22296-0.04008 0.2874 0.0258 0.2874 0.0258v0.36576c0.027 0.09156-1.411 1.3981-1.411 1.3981z" stroke-width="0.12" fill="#4d4d4d"/></svg>
