<?xml version="1.0" encoding="UTF-8" standalone="no"?>
<svg id="svg2" xmlns:rdf="http://www.w3.org/1999/02/22-rdf-syntax-ns#" xmlns="http://www.w3.org/2000/svg" enable-background="new 0.06 0.572 99.999 100" xml:space="preserve" height="80" width="80" version="1.1" y="0px" x="0px" xmlns:cc="http://creativecommons.org/ns#" xmlns:dc="http://purl.org/dc/elements/1.1/" viewBox="0.06 0.572 80 80"><metadata id="metadata14"><rdf:RDF><cc:Work rdf:about=""><dc:format>image/svg+xml</dc:format><dc:type rdf:resource="http://purl.org/dc/dcmitype/StillImage"/><dc:title/></cc:Work></rdf:RDF></metadata><path id="path4" d="m65.948 51.019h-18.663l9.7985-20.248 1.6176-3.3464c0.1944-0.5216 0.3696-1.0528 0.52081-1.5936 0.476-1.704 0.74881-3.4928 0.74881-5.3496 0-10.995-8.9161-19.91-19.912-19.91s-19.911 8.9144-19.911 19.91c0 1.856 0.2736 3.6448 0.74961 5.3496 0.1504 0.5408 0.3256 1.072 0.52001 1.5936l1.6184 3.3456 9.7961 20.249h-18.661l-14.112 29.552h80l-14.112-29.553zm-25.888-37.661c3.9336 0 7.1257 3.1904 7.1257 7.1232 0 3.936-3.1912 7.124-7.1257 7.124-3.9344 0-7.1241-3.1896-7.1241-7.124 0-3.9328 3.1896-7.1232 7.1241-7.1232zm-11.303 44.967c3.3488 0.4552 5.3153 2.792 7.7241 5.6936 3.828 4.6088 8.5921 10.346 21.303 10.346 7.7737 0 12.534-1.412 14.181-4.192l3.6184 7.5768h-46.827v-19.425zm38.456 1.8936c-4.951 0.011-10.469-0.034-13.178-2.737-0.931-0.931-1.45-2.14-1.613-3.642h11.748l3.0424 6.3784zm-27.153 5.7352 5.8617-12.113h5.0945c0.1808 1.884 0.83761 3.456 2.0232 4.6416 2.9856 2.98 8.4681 3.148 13.515 3.148h0.97841l0.356-0.0016 3.2488 6.8032c-0.0456 0.2488-0.112 0.496-0.224 0.7368-0.79441 1.728-3.7168 3.7856-13.126 3.7856-12.048 0-16.389-5.2256-20.217-9.8376-2.452-2.9504-4.7992-5.7248-8.8097-6.1992v-3.076h5.4409l5.8585 12.112zm-24.11-12.113h11.397v2.9832c-6.1601 0.0488-8.9425 2.1464-11.179 3.8416-1.472 1.1144-2.6832 2.0224-4.5536 2.2576l4.3352-9.0824zm-5.0336 10.542c2.7584-0.08 4.3904-1.2968 6.1033-2.592 2.1744-1.648 4.6496-3.5048 10.327-3.5504v19.51h-22.812l6.3817-13.367z" stroke-width="0.8" fill="#4d4d4d"/></svg>
