<?xml version="1.0" encoding="UTF-8" standalone="no"?>
<!-- Created with Inkscape (http://www.inkscape.org/) -->

<svg
   xmlns:dc="http://purl.org/dc/elements/1.1/"
   xmlns:cc="http://creativecommons.org/ns#"
   xmlns:rdf="http://www.w3.org/1999/02/22-rdf-syntax-ns#"
   xmlns:svg="http://www.w3.org/2000/svg"
   xmlns="http://www.w3.org/2000/svg"
   xmlns:sodipodi="http://sodipodi.sourceforge.net/DTD/sodipodi-0.dtd"
   xmlns:inkscape="http://www.inkscape.org/namespaces/inkscape"
   id="svg2"
   height="400"
   viewBox="0 0 400.00263 399.99923"
   width="400"
   version="1.1"
   inkscape:version="0.91+devel r"
   sodipodi:docname="imetro.svg">
  <defs
     id="defs12" />
  <sodipodi:namedview
     pagecolor="#ffffff"
     bordercolor="#666666"
     borderopacity="1"
     objecttolerance="10"
     gridtolerance="10"
     guidetolerance="10"
     inkscape:pageopacity="0"
     inkscape:pageshadow="2"
     inkscape:window-width="1280"
     inkscape:window-height="1000"
     id="namedview10"
     showgrid="false"
     inkscape:zoom="0.93140736"
     inkscape:cx="251.6238"
     inkscape:cy="116.30791"
     inkscape:window-x="0"
     inkscape:window-y="24"
     inkscape:window-maximized="1"
     inkscape:current-layer="svg2"
     fit-margin-top="0"
     fit-margin-left="0"
     fit-margin-right="0"
     fit-margin-bottom="0" />
  <metadata
     id="metadata8">
    <rdf:RDF>
      <cc:Work
         rdf:about="">
        <dc:format>image/svg+xml</dc:format>
        <dc:type
           rdf:resource="http://purl.org/dc/dcmitype/StillImage" />
        <dc:title></dc:title>
      </cc:Work>
    </rdf:RDF>
  </metadata>
  <g
     id="g111"
     transform="matrix(6.3265619,0,0,6.3146932,-0.0019716,2.1104468e-4)">
    <ellipse
       id="path103"
       rx="28.698"
       ry="26.698"
       cy="31.381001"
       cx="31.302"
       style="fill:#ffffff" />
    <g
       id="g72"
       transform="translate(-0.15542,-0.57712)"
       style="stroke-width:1.33150005">
      <path
         id="path78"
         d="M 17.52,60.491 C 5.48,54.401 -0.744,43.138 0.261,29.255 1.0002,19.028 6.4143,10.154 15.243,4.695 21.0123,1.1281 22.9316,0.6653 31.956,0.6653 c 9.0241,0 10.944,0.46279 16.713,4.0297 4.0399,2.4977 8.0498,6.5075 10.547,10.547 3.5669,5.7693 4.0297,7.6886 4.0297,16.713 0,9.0241 -0.46279,10.944 -4.0297,16.713 C 50.4547,62.839 32.326,67.98 17.52,60.491 Z M 40.968,55.193 C 62.285,46.286 62.285,17.625 40.968,8.718 28.722,3.6014 15.015,9.3143 9.174,21.969 3.3791,34.525 8.9198,48.714 21.969,54.737 c 6.5412,3.019 12.52,3.1624 18.998,0.45579 z M 11.697,43.209 c -0.96783,-0.96783 1.6727,-11.254 2.889,-11.254 2.0782,0 2.3481,1.6926 1.0716,6.7215 -1.2661,4.9882 -2.31,6.1827 -3.9606,4.532 z M 27.961,32.621 V 21.304 h 3.727 c 3.0508,0 4.0327,0.84553 5.4121,4.6602 0.92683,2.5631 2.1252,4.6602 2.663,4.6602 0.5378,0 1.7361,-2.0971 2.663,-4.6602 1.4118,-3.9044 2.3278,-4.6602 5.6473,-4.6602 h 3.9621 l -0.38672,10.985 c -0.35093,9.9682 -0.63316,10.985 -3.0497,10.985 -2.1669,0 -2.787,-1.1096 -3.3287,-5.9568 -0.66254,-5.9282 -0.6736,-5.9394 -2.3016,-2.3301 -2.175,4.8222 -4.7304,4.5788 -7.3579,-0.7006 l -2.1536,-4.3273 -0.08515,6.9903 c -0.074,6.0743 -0.43413,6.9903 -2.7481,6.9903 -2.4541,0 -2.663,-0.88766 -2.663,-11.318 z m -9.3204,4.6602 c 0,-0.73232 1.8329,-1.3315 4.073,-1.3315 2.3763,0 3.7302,0.55467 3.2501,1.3315 -0.4526,0.73232 -2.2855,1.3315 -4.073,1.3315 -1.7876,0 -3.2501,-0.59917 -3.2501,-1.3315 z m -4.66,-7.988 c 0.4526,-0.73232 1.3867,-1.3315 2.0758,-1.3315 0.6891,0 1.2529,0.59917 1.2529,1.3315 0,0.73232 -0.93411,1.3315 -2.0758,1.3315 -1.14169,0 -1.7055,-0.59917 -1.2529,-1.3315 z"
         inkscape:connector-curvature="0"
         style="fill:#989898" />
      <path
         id="path76"
         d="M 17.52,60.491 C 5.48,54.401 -0.744,43.138 0.261,29.255 1.0002,19.028 6.4143,10.154 15.243,4.695 21.0123,1.1281 22.9316,0.6653 31.956,0.6653 c 9.0241,0 10.944,0.46279 16.713,4.0297 4.0399,2.4977 8.0498,6.5075 10.547,10.547 3.5669,5.7693 4.0297,7.6886 4.0297,16.713 0,9.0241 -0.46279,10.944 -4.0297,16.713 C 50.4547,62.839 32.326,67.98 17.52,60.491 Z M 40.968,55.193 C 62.285,46.286 62.285,17.625 40.968,8.718 28.722,3.6014 15.015,9.3143 9.174,21.969 3.3791,34.525 8.9198,48.714 21.969,54.737 c 6.5412,3.019 12.52,3.1624 18.998,0.45579 z M 27.961,32.621 V 21.304 h 3.727 c 3.0508,0 4.0327,0.84553 5.4121,4.6602 0.92683,2.5631 2.1252,4.6602 2.663,4.6602 0.5378,0 1.7361,-2.0971 2.663,-4.6602 1.4118,-3.9044 2.3278,-4.6602 5.6473,-4.6602 h 3.9621 l -0.38672,10.985 c -0.35093,9.9682 -0.63316,10.985 -3.0497,10.985 -2.1669,0 -2.787,-1.1096 -3.3287,-5.9568 -0.66254,-5.9282 -0.6736,-5.9394 -2.3016,-2.3301 -2.175,4.8222 -4.7304,4.5788 -7.3579,-0.7006 l -2.1536,-4.3273 -0.08515,6.9903 c -0.074,6.0743 -0.43413,6.9903 -2.7481,6.9903 -2.4541,0 -2.663,-0.88766 -2.663,-11.318 z"
         inkscape:connector-curvature="0"
         style="fill:#7d7d7d" />
      <path
         id="path74"
         d="M 22.196,61.819 C 7.543,57.16 -2.071,40.648 1.244,25.834 6.8076,0.974 36.144,-7.865 53.96,9.951 61.849,17.84 64.942,27.911 62.638,38.206 58.556,56.447 39.78,67.41 22.196,61.819 Z m 25.189,-9.2979 c 7.771,-6.289 10.105,-11.69 9.575,-22.155 -0.381,-7.543 -1.063,-9.669 -4.439,-13.84 -6.289,-7.7705 -11.69,-10.105 -22.155,-9.5752 -7.543,0.3817 -9.669,1.0634 -13.84,4.4392 -7.7705,6.289 -10.105,11.69 -9.5752,22.155 0.38167,7.5438 1.0634,9.6692 4.4394,13.84 6.2891,7.7704 11.69,10.105 22.155,9.5751 7.5438,-0.38167 9.6692,-1.0634 13.84,-4.4394 z M 29.293,31.9561 c 0,-9.4724 0.27247,-10.652 2.4608,-10.652 1.5829,0 3.3175,1.8999 4.8624,5.3259 1.3209,2.9293 2.8189,5.3259 3.329,5.3259 0.51001,0 1.8687,-2.3967 3.0194,-5.3259 1.507,-3.8365 2.8667,-5.3259 4.8622,-5.3259 2.5749,0 2.7701,0.75036 2.7701,10.652 0,8.5807 -0.38835,10.652 -1.9972,10.652 -1.509,0 -1.9972,-1.6274 -1.9972,-6.6574 0,-7.5363 -1.3649,-8.5496 -3.5869,-2.663 -2.0439,5.415 -4.9498,5.024 -7.4207,-0.99861 l -2.0485,-4.9931 -0.12939,7.656 c -0.09904,5.8602 -0.59787,7.656 -2.1266,7.656 -1.6089,0 -1.9972,-2.0712 -1.9972,-10.652 z"
         inkscape:connector-curvature="0"
         style="fill:#545454" />
    </g>
  </g>
</svg>
