<?xml version="1.0" encoding="UTF-8" standalone="no"?>
<svg id="svg2" xmlns:rdf="http://www.w3.org/1999/02/22-rdf-syntax-ns#" xmlns="http://www.w3.org/2000/svg" height="16" viewBox="0 0 15.999972 16" width="16" version="1.1" y="0px" x="0px" xmlns:cc="http://creativecommons.org/ns#" xmlns:dc="http://purl.org/dc/elements/1.1/">
 <metadata id="metadata16">
  <rdf:RDF>
   <cc:Work rdf:about="">
    <dc:format>image/svg+xml</dc:format>
    <dc:type rdf:resource="http://purl.org/dc/dcmitype/StillImage"/>
    <dc:title/>
   </cc:Work>
  </rdf:RDF>
 </metadata>
 <g id="g4" fill="#4d4d4d" transform="matrix(.16 0 0 .16 -16.454 -102.28)">
  <path id="path6" fill="#4d4d4d" d="m186.16 639.26c-8.8826 7.0366-17.704 4.4927-26.704 5.9648-9.7692 1.8358-19.308 2.9848-27.549 6.6932-15.542 6.9754-20.803 22.082-19.09 35.054 1.3757 10.423 7.2959 17.367 11.751 22.272 3.5538 3.9124 4.4244 8.7949 4.9272 13.586 0.57719 5.4999-1.1344 10.945-2.2952 16.431h38.338c0.0222-9.7044 0.0693-13.021 4.0613-16.094 2.8282-2.0247 7.0519 0.1308 10.404-0.79714 1.1749-0.32522 2.501-0.6905 3.271-1.6355 1.041-1.2775 0.79104-3.2012 1.2725-4.7772 0.39926-1.3068 0.43837-2.8467 1.3388-3.8745 0.69056-0.78825 2.2124-0.55071 2.8106-1.4087 0.40384-0.57912 0.41949-1.4217 0.23364-2.1028-0.20528-0.75214-1.5335-1.1007-1.4019-1.8692 0.1424-0.83122 1.617-0.71939 2.1028-1.4087 0.37034-0.52553 0.60434-1.241 0.46729-1.8692-0.21292-0.97549-1.4474-1.4314-1.8692-2.3364-0.16792-0.36034-0.33039-0.78307-0.23365-1.1682 0.54174-2.1568 5.615-3.3959 4.2444-5.1471-1.6962-2.1671-7.4195-3.9051-8.7349-10.947-0.26693-1.3466-0.20899-2.7182 0.0444-3.9857 0.4038-2.2585 0.85066-4.5418 0.50605-6.7826-0.5432-3.5321-2.3856-6.7558-3.9732-9.9574-0.60069-1.2114-1.2494-2.3571-2.0891-3.4772 2.8812-2.5011 15.17-2.4533 15.17-2.4533s-10.688-2.0367-15.812-3.8002c-3.0986-1.0664 11.72-12.559 8.8098-14.108z"/>
 </g>
</svg>
