<?xml version="1.0" encoding="UTF-8" standalone="no"?>
<svg id="svg2" xmlns:rdf="http://www.w3.org/1999/02/22-rdf-syntax-ns#" xmlns="http://www.w3.org/2000/svg" version="1.1" xml:space="preserve" height="80" viewBox="0 0 79.999841 80" width="80" enable-background="new 0 0 100 100" y="0px" x="0px" xmlns:cc="http://creativecommons.org/ns#" xmlns:dc="http://purl.org/dc/elements/1.1/"><metadata id="metadata26"><rdf:RDF><cc:Work rdf:about=""><dc:format>image/svg+xml</dc:format><dc:type rdf:resource="http://purl.org/dc/dcmitype/StillImage"/><dc:title/></cc:Work></rdf:RDF></metadata><g id="g3354" fill="#4d4d4d" transform="translate(5.499)"><g id="g5" stroke-width=".84921"><path id="path4" d="m66.16 0h-63.318c-1.5631 0-2.842 1.2789-2.842 2.8415v74.318c0 1.561 1.2789 2.84 2.8415 2.84h63.319c1.5617 0 2.8415-1.2789 2.8415-2.8415v-74.317c-0.001-1.5621-1.28-2.841-2.842-2.841zm-2.3846 74.879h-58.55v-69.654h58.55v69.654z"/><path id="path6" d="m52.192 53.695c0 0.68786-0.55708 1.2449-1.2449 1.2449h-4.1875c-0.68701 0-1.2449-0.55708-1.2449-1.2449 0-0.68871 0.55793-1.2458 1.2449-1.2458h4.1883c0.68701 0.000849 1.2441 0.55793 1.2441 1.2458z"/><path id="path8" d="m58.352 34.89c0 1.3078-1.0598 2.3676-2.3676 2.3676h-42.995c-1.3069 0-2.3676-1.0598-2.3676-2.3676s1.0607-2.3676 2.3676-2.3676h42.995c1.3078 0 2.3676 1.0598 2.3676 2.3676z"/><path id="path10" d="m58.352 24.471c0 1.3078-1.0598 2.3676-2.3676 2.3676h-42.995c-1.3069 0-2.3676-1.0598-2.3676-2.3676s1.0607-2.3685 2.3676-2.3685h42.995c1.3078 0 2.3676 1.0607 2.3676 2.3685z"/><path id="path12" d="m29.081 14.05c0 1.3078-1.0598 2.3685-2.3676 2.3685h-13.724c-1.3069 0-2.3676-1.0607-2.3676-2.3685s1.0607-2.3676 2.3676-2.3676h13.725c1.3069 0 2.3668 1.0598 2.3668 2.3676z"/><path id="path14" d="m59.126 59.114c-2.2861 0.28024-3.8257 2.0254-5.2829 3.4605-0.47811 0.49254-0.93583 0.96725-1.3528 1.3647 0.29128-0.5384 0.60124-1.1328 0.856-1.7205 0.30147-0.72862 0.47386-1.3485 0.47726-1.9795 0.01019-0.57492-0.19447-1.2432-0.68956-1.6797-0.48915-0.43904-1.0717-0.55029-1.543-0.55029-1.38 0.04586-2.6088 0.74306-3.6295 1.6271-1.0114 0.92224-2.0407 2.0033-2.9383 2.8211-0.44499 0.40677-0.86195 0.74476-1.177 0.94602-0.15795 0.10191-0.28958 0.16814-0.37026 0.20042-0.01868 0.0077-0.03482 0.01358-0.0484 0.01784-0.10615-0.02548-0.20721-0.04925-0.30232-0.07049 0.41357-0.63691 1.1923-1.7239 2.3608-3.2499 0.40253-0.4798 0.749-0.91036 1.0208-1.256 0.19447-0.24882 0.35072-0.45178 0.46367-0.60634 0.0569-0.07728 0.10276-0.14012 0.14522-0.20126 0.02123-0.03227 0.04076-0.05944 0.06879-0.107 0.01528-0.02378 0.02972-0.0518 0.05775-0.1053 0.1036-0.18088 0.11294-0.31081 0.11719-0.38979 0.0026-0.02208 0.0051-0.04586 0.0077-0.07049 0.0017-0.0042 0.0042-0.0085 0.0068-0.01189 0.0068-0.09256 0.0034-0.09766 0.0051-0.10021 0-0.11889-0.01698-0.23608-0.0501-0.34988-0.03822-0.13672-0.10021-0.26665-0.18258-0.38384-0.04246-0.05944-0.08917-0.11719-0.14097-0.16814-0.05265-0.05265-0.1087-0.09936-0.16814-0.14097-0.0552-0.03906-0.11294-0.07388-0.17324-0.10275-0.0077-0.0042-0.01784-0.0093-0.02972-0.01528 0 0.000848 0.00085 0.000848 0.0017 0.0017-0.0051-0.0026-0.01019-0.0051-0.01528-0.0068 0.0051 0.0017 0.0093 0.0034 0.01358 0.0051-0.02293-0.01528-0.06539-0.03652-0.15371-0.0569 0.01784 0.0051 0.03567 0.01358 0.0535 0.01953-0.02378-0.0085-0.04841-0.01784-0.07219-0.02378 0.006 0.000848 0.01274 0.0026 0.01784 0.0042-0.0569-0.01784-0.11634-0.03142-0.17579-0.04076-0.07219-0.01358-0.14352-0.02038-0.20211-0.01614-0.01614 0-0.03057 0.000849-0.04586 0.000849-0.10955-0.01019-0.23183 0.01614-0.35667 0.06369 0.01274-0.0042 0.02463-0.0077 0.03822-0.01104-0.02463 0.0077-0.0501 0.01614-0.07388 0.02463 0.01188-0.0051 0.02378-0.01019 0.03566-0.01444-0.1138 0.03227-0.17664 0.06879-0.22249 0.09936-0.03058 0.01784-0.05944 0.03566-0.08832 0.05435-0.0026 0.000849-0.0042 0.0017-0.006 0.0026-0.01104 0.0077-0.02038 0.01528-0.02972 0.02208-0.02378 0.01784-0.04671 0.03482-0.06879 0.0535-0.12823 0.10275-0.10955 0.107-0.15795 0.14946-0.18768 0.2106-0.52906 0.6403-1.2449 1.5821-0.11379 0.14946-0.22504 0.29552-0.33289 0.43734-0.60973 0.72777-1.3553 1.5829-2.1366 2.3999-0.90441 0.94772-1.8708 1.8632-2.7226 2.5035-0.83308 0.66069-1.6186 0.95706-1.7273 0.91715h-0.01104c-0.12398-0.02038-0.21655-0.04586-0.27684-0.06794 0.01868-0.18258 0.15626-0.56558 0.39658-1.0726 1.2483-1.5167 2.4814-3.4648 3.4682-5.1615 0.55029-0.94687 1.0174-1.8139 1.3528-2.4729 0.1673-0.33119 0.30232-0.61143 0.40508-0.83562 0.05095-0.11464 0.09256-0.214 0.13163-0.31591 0.03142-0.13672 0.08747-0.13078 0.11379-0.56642-0.0051-0.14522-0.0077-0.34648-0.17324-0.6488-0.13672-0.30656-0.66069-0.67173-1.1091-0.642-0.47556 0.02123-0.62502 0.16984-0.73796 0.23268-0.32949 0.25816-0.30062 0.30062-0.39828 0.40847-0.19277 0.27005-0.4331 0.67003-0.83138 1.3689-1.1855 2.0729-2.4203 3.9191-3.3875 5.502-0.37196 0.63096-0.71504 1.2008-0.99952 1.7477-0.28024 0.32695-0.54689 0.61058-0.78892 0.83393-0.24882 0.23014-0.47046 0.39404-0.61908 0.47726-0.07048 0.03991-0.12314 0.06199-0.14946 0.07048-0.0017 0-0.0026 0-0.0026 0.000849-0.0085 0-0.01614-0.000849-0.02293-0.000849-0.01358-0.06369-0.02718-0.1673-0.02632-0.30911-0.01104-0.46452 0.14946-1.2466 0.47301-2.2547 0.56133-0.79741 1.0972-1.6059 1.6042-2.4058 1.5668-2.495 2.8381-4.9348 3.7263-6.8786 0.44584-0.97235 0.79486-1.819 1.0403-2.5001 0.24202-0.71589 0.40168-1.115 0.4263-1.7273-0.0068-0.14606 0.0017-0.3227-0.13502-0.63861-0.08917-0.30996-0.67173-0.8076-1.2008-0.76769-0.86705 0.09596-0.90186 0.38979-1.0963 0.51547-0.41102 0.45603-0.77278 1.0624-1.3834 2.1706-1.7816 3.2652-3.2576 6.1602-4.3021 8.5787-0.38724 0.90611-0.71843 1.7383-0.98424 2.5069-0.26326 0.36686-0.53076 0.72947-0.8042 1.087-2.5706 3.3858-5.6362 6.2451-8.5431 7.1894-0.66833 0.22334-1.0309 0.94347-0.80845 1.6101 0.17664 0.535 0.67342 0.87384 1.2076 0.87384 0.13333 0 0.26835-0.02123 0.40252-0.06539 3.0037-1.0241 5.7025-3.2729 8.0599-5.9666 0.09172 0.22929 0.21825 0.45093 0.38894 0.66238 0.49594 0.61568 1.3044 0.88573 2.0058 0.86874 0.38639-0.02548 0.72608-0.10785 1.0352-0.23184 0.1087 0.20806 0.25052 0.40253 0.42715 0.56558 0.37535 0.35497 0.8127 0.55538 1.2764 0.67937h-4.0567c-0.68701 0-1.2449 0.55708-1.2449 1.2458 0 0.68786 0.55793 1.2449 1.2449 1.2449h25.052c0.68786 0 1.2449-0.55708 1.2449-1.2449 0-0.68871-0.55708-1.2458-1.2449-1.2458h-4.1815c0.2106-0.14522 0.41187-0.30062 0.61058-0.45942 1.0921-0.91545 2.1358-2.1332 3.1752-3.1107 1.0275-0.99782 2.0474-1.6432 2.6436-1.6645 0.69975-0.06454 1.2178-0.68362 1.1532-1.3834-0.06284-0.69805-0.68107-1.2144-1.3817-1.1515zm-13.968-2.515c-0.06029 0.06794-0.11379 0.14267-0.1588 0.22164-0.0085 0.01189-0.01784 0.02632-0.02972 0.04246 0.03142-0.08237 0.09936-0.17409 0.18852-0.2641zm-7.3406 10.287c0.92055-0.23948 1.7146-0.78892 2.5621-1.419 0.09681-0.07558 0.19447-0.15286 0.29128-0.23099 0.02123 0.02123 0.04246 0.04331 0.06454 0.06284 0.94262 0.749 1.4589 0.57492 2.1672 0.81864 0.19362 0.04756 0.36856 0.06114 0.51887 0.06114 1.4589-0.09766 2.2742-0.96046 3.317-1.8368 0.99612-0.90866 2.022-1.9889 2.9391-2.8211 0.39828-0.39573 1.0861-0.74646 1.5345-0.89337-0.04246 0.16135-0.1104 0.36601-0.2123 0.60719-0.29298 0.69381-0.7507 1.4904-1.1583 2.236-0.39318 0.78552-0.80675 1.3672-0.8611 2.3685-0.01444 0.28873 0.08237 0.704 0.32864 1.0471h-11.492z"/></g><polygon id="polygon16" points="27.429 71.206 24.05 71.364 24.208 67.984 21.202 66.431 23.027 63.583 21.202 60.734 24.208 59.18 24.05 55.8 27.429 55.958 28.983 52.952 31.832 54.778 34.68 52.952 36.234 55.958 39.613 55.8 39.456 59.18 42.461 60.734 40.636 63.583 42.461 66.431 39.456 67.984 39.613 71.364 36.234 71.206 34.68 74.212 31.832 72.386 28.983 74.212" transform="matrix(.84921 0 0 .84921 -8.0149 -2.3735)"/></g></svg>
