<?xml version="1.0" encoding="UTF-8" standalone="no"?>
<svg id="svg2" xmlns:rdf="http://www.w3.org/1999/02/22-rdf-syntax-ns#" xmlns="http://www.w3.org/2000/svg" version="1.1" xml:space="preserve" height="32" viewBox="0 0 31.99963 32" width="32" enable-background="new 0 0 100 100" y="0px" x="0px" xmlns:cc="http://creativecommons.org/ns#" xmlns:dc="http://purl.org/dc/elements/1.1/"><metadata id="metadata18"><rdf:RDF><cc:Work rdf:about=""><dc:format>image/svg+xml</dc:format><dc:type rdf:resource="http://purl.org/dc/dcmitype/StillImage"/><dc:title/></cc:Work></rdf:RDF></metadata><g id="g4" fill="#4d4d4d" transform="matrix(-.32 0 0 .32 32.877 -.0000042557)"><g id="g6" fill="#4d4d4d"><path id="path8" fill="#4d4d4d" d="m95 90.109-14.262-17.064-1.071 0.655l-3.158-6.585 2.812 1.043s4.121-12.88 7.975-23.87c4.203-11.984 4.85-34.483-9.95-36.817-8.734-14.036-40.263-4.945-49.867 0.282-7.331 3.989-9.989 1.826-11.735 0.641-1.055 6.303 5.708 10.152 5.708 10.152s-4.126 10.644-4.126 13.815 2.222 4.583 0.002 7.437-7.929 12.686-6.661 13.954c1.269 1.271 6.661 2.855 6.661 2.855l3.806 12.37s-3.17 7.294-1.902 8.562 3.27 4.868 6.659 4.44c4.452-0.562 16.492-2.537 16.492-2.537l5.891 13.423-2.956 1.806-1.661 5.329h38.583l12.76-9.891z"/></g></g></svg>
