<?xml version="1.0" encoding="UTF-8" standalone="no"?>
<svg id="svg2" xmlns:rdf="http://www.w3.org/1999/02/22-rdf-syntax-ns#" xmlns="http://www.w3.org/2000/svg" enable-background="new 0 0 100 100" xml:space="preserve" height="32" width="32" version="1.1" y="0px" x="0px" xmlns:cc="http://creativecommons.org/ns#" xmlns:dc="http://purl.org/dc/elements/1.1/" viewBox="0 0 32 32"><metadata id="metadata14"><rdf:RDF><cc:Work rdf:about=""><dc:format>image/svg+xml</dc:format><dc:type rdf:resource="http://purl.org/dc/dcmitype/StillImage"/><dc:title/></cc:Work></rdf:RDF></metadata><path id="path4" stroke-width="0.355" fill="#4d4d4d" d="m28.663 23.604-26.127-9.753c-0.9078-0.338-1.5017-1.147-1.6139-2.046h-0.0028s-0.25312-2.0782-0.90632-7.2502c-0.13881-1.0973 0.86869-1.256 1.4012-0.46079 0.97945 1.4608 2.3011 3.4424 3.5305 5.2888l5.4073 2.0182c-0.4043-3.1736-0.956-7.5174-1.339-10.546l2.3331 0.87082c2.2805 4.3484 4.7741 9.0792 6.5803 12.502l8.2122 3.0665c4.5355 1.6919 6.0041 4.1734 5.5185 5.4748-0.43878 1.1765-1.4722 1.4012-2.9944 0.8339zm-19.579-5.894c-0.6461-0.23998-1.3636 0.08733-1.6042 0.73166-0.24105 0.64539 0.08555 1.3632 0.7313 1.6046 0.6461 0.24282 1.3636-0.0852 1.605-0.72953 0.24176-0.64681-0.08555-1.3646-0.73201-1.6067zm3.6562 1.3668c-0.64575-0.2414-1.3636 0.08733-1.605 0.73237-0.24176 0.64468 0.08591 1.3646 0.73166 1.605 0.64646 0.24211 1.3643-0.08591 1.605-0.73095 0.24069-0.64468-0.08555-1.3636-0.73166-1.6064zm19.26 11.109c0-0.52966-0.42884-0.95957-0.9585-0.95957h-18.716c-0.52966 0-0.95957 0.42991-0.95957 0.95957s0.42991 0.95886 0.95957 0.95886h18.716c0.52966 0 0.9585-0.4292 0.9585-0.95886z"/></svg>
