<?xml version="1.0" encoding="UTF-8" standalone="no"?>
<svg id="svg2" xmlns:rdf="http://www.w3.org/1999/02/22-rdf-syntax-ns#" xmlns="http://www.w3.org/2000/svg" version="1.1" xml:space="preserve" height="32" viewBox="0 0 31.999809 31.999998" width="32" enable-background="new 0 0 100 100" y="0px" x="0px" xmlns:cc="http://creativecommons.org/ns#" xmlns:dc="http://purl.org/dc/elements/1.1/"><metadata id="metadata18"><rdf:RDF><cc:Work rdf:about=""><dc:format>image/svg+xml</dc:format><dc:type rdf:resource="http://purl.org/dc/dcmitype/StillImage"/><dc:title/></cc:Work></rdf:RDF></metadata><g id="g3337" fill="#4d4d4d" transform="translate(1.2912 .000027954)"><g id="g4" transform="matrix(.36925 0 0 .36925 -3.734 -2.2093)"><path id="path6" fill="#4d4d4d" d="m31.842 92.646c-1.497 0-2.887-0.962-3.362-2.465l-18.203-57.646c-0.586-1.857 0.444-3.839 2.301-4.425 1.856-0.587 3.839 0.442 4.424 2.301l18.204 57.645c0.586 1.857-0.443 3.838-2.301 4.426-0.354 0.11-0.711 0.164-1.063 0.164z"/></g><path id="path8" stroke-width=".36925" d="m29.358 10.724-4.631-10.45c-0.059-0.14844-0.196-0.25367-0.354-0.2714-0.15619-0.01809-0.3146 0.04948-0.40617 0.18093-0.02732 0.04025-2.9507 3.7693-10.043 3.4683-7.8118-0.31903-9.3973 6.0446-9.4121 6.1077-0.01772 0.07533-0.01477 0.12444 0.0081 0.19829l4.1965 13.489c0.05649 0.18315 0.22561 0.56015 0.41503 0.56015h0.01809c0.19644 0 0.36297-0.40248 0.4058-0.59486 0.06166-0.28063 1.5951-6.7314 8.6924-6.7314 7.4909 0 9.2559-2.2085 10.786-4.6189 0.09416-0.14881 0.31681-0.62735 0.31681-0.62735 0.05059-0.10893 0.11816-0.32051 0.0085-0.7108z"/></g></svg>
