<?xml version="1.0" encoding="UTF-8" standalone="no"?>
<!-- Created with Inkscape (http://www.inkscape.org/) -->
<svg id="svg2" xmlns:rdf="http://www.w3.org/1999/02/22-rdf-syntax-ns#" xmlns="http://www.w3.org/2000/svg" height="399.76" viewBox="0 0 399.86615 399.75732" width="399.87" version="1.1" xmlns:cc="http://creativecommons.org/ns#" xmlns:dc="http://purl.org/dc/elements/1.1/">
 <metadata id="metadata8">
  <rdf:RDF>
   <cc:Work rdf:about="">
    <dc:format>image/svg+xml</dc:format>
    <dc:type rdf:resource="http://purl.org/dc/dcmitype/StillImage"/>
    <dc:title/>
   </cc:Work>
  </rdf:RDF>
 </metadata>
 <g id="g3372">
  <rect id="rect3367" transform="translate(.21046 .21046)" height="272.88" width="292.03" y="43.595" x="53.054" fill="#fff"/>
  <path id="path3360" d="m59.654 397.55c-26.739-6.48-51.048-31.02-57.396-57.95-3.0105-12.77-3.0105-266.57-0.0005-279.34 6.4254-27.254 30.748-51.577 58.008-58.002 12.77-3.0101 266.57-3.0101 279.34 0 27.258 6.4254 51.582 30.749 58.007 58.007 3.01 12.77 3.01 266.57 0 279.34-6.4254 27.258-30.749 51.582-58.007 58.007-12.317 2.9033-267.93 2.8467-279.95-0.0619zm257.12-93.34c6.5416-3.1042 13.448-10.338 16.81-17.607 2.6429-5.714 2.8528-8.644 3.2337-45.138l0.4073-39.027-9.3581 7.1298c-5.1469 3.9214-13.119 9-17.717 11.286-16.01 7.9604-54.779 19.222-77.124 22.403l-6.1856 0.88046-0.50469 9.9944c-0.46984 9.304-0.80279 10.261-4.8202 13.85-4.2904 3.8334-4.4159 3.8559-21.583 3.8559s-17.292-0.0225-21.583-3.8559c-4.0174-3.5895-4.3503-4.5462-4.8202-13.85l-0.50469-9.9944-6.1856-0.88046c-12.816-1.8242-37.069-7.7696-52.635-12.903-22.086-7.2836-32.342-12.643-47.163-24.645l-4.4026-3.5653 0.40818 39.175c0.45968 44.117 0.8697 46.205 11.078 56.413 9.118 9.118 1.8453 8.6158 125.61 8.6733 102.66 0.0477 112.72-0.14075 117.04-2.1938zm-104.63-45.23c2.085-1.8869 2.4349-4.3638 2.4349-17.234 0-18.188-0.75413-19.176-14.646-19.176-13.859 0-14.646 1.018-14.646 18.944 0 18.961 0.51879 19.669 14.415 19.669 7.4438 0 10.632-0.56455 12.443-2.2036zm-35.739-40.911c1.2995-1.9833 3.8683-4.1784 5.7084-4.878 4.3777-1.6644 31.312-1.6446 35.706 0.0262 4.5263 1.7209 8.7308 8.8565 8.737 14.828 0.005 5.5966-2.0734 5.5684 23.972 0.32501 21.056-4.2391 52.545-14.641 64.276-21.234 11.341-6.3733 22.913-16.609 26.315-23.276 2.343-4.5927 2.613-7.9224 2.613-32.233 0-30.568-0.98105-35.569-8.7612-44.659-2.5422-2.97-8.052-7.0842-12.244-9.1427l-7.6218-3.7427h-231.68l-5.481 2.9322c-8.1305 4.3496-13.443 9.2585-17.513 16.182-3.6215 6.1605-3.6371 6.2973-4.0587 35.686-0.39438 27.493-0.2391 29.862 2.2801 34.8 3.4836 6.8284 14.959 17.021 26.405 23.453 11.664 6.5545 43.103 16.96 64.276 21.275 24.667 5.0261 23.177 5.1064 24.004-1.2947 0.38653-2.9926 1.766-7.0637 3.0655-9.047zm-28.51-135.21c28.172-17.984 75.916-17.984 104.09 0 9.4387 6.0254 15.861 4.8392 15.861-2.9293 0-4.0755-2.1231-6.603-9.411-11.204-26.46-16.704-71.725-19.515-103.87-6.452-15.142 6.1527-22.527 11.941-22.527 17.656 0 7.7685 6.4226 8.9547 15.861 2.9293z" stroke-width="1.3315" fill="#323232"/>
 </g>
</svg>
