<?xml version="1.0" encoding="UTF-8" standalone="no"?>
<svg
   xmlns:dc="http://purl.org/dc/elements/1.1/"
   xmlns:cc="http://creativecommons.org/ns#"
   xmlns:rdf="http://www.w3.org/1999/02/22-rdf-syntax-ns#"
   xmlns:svg="http://www.w3.org/2000/svg"
   xmlns="http://www.w3.org/2000/svg"
   xmlns:sodipodi="http://sodipodi.sourceforge.net/DTD/sodipodi-0.dtd"
   xmlns:inkscape="http://www.inkscape.org/namespaces/inkscape"
   version="1.1"
   x="0px"
   y="0px"
   viewBox="0 0 16 16"
   enable-background="new 0 0 100 100"
   xml:space="preserve"
   id="svg2"
   inkscape:version="0.91+devel r"
   sodipodi:docname="warning-icon.svg"
   width="16"
   height="16"
   inkscape:export-filename="/home/shamank/Descargas/warning-icon.png"
   inkscape:export-xdpi="96"
   inkscape:export-ydpi="96"><metadata
     id="metadata14"><rdf:RDF><cc:Work
         rdf:about=""><dc:format>image/svg+xml</dc:format><dc:type
           rdf:resource="http://purl.org/dc/dcmitype/StillImage" /><dc:title></dc:title></cc:Work></rdf:RDF></metadata><defs
     id="defs12" /><sodipodi:namedview
     pagecolor="#ffffff"
     bordercolor="#666666"
     borderopacity="1"
     objecttolerance="10"
     gridtolerance="10"
     guidetolerance="10"
     inkscape:pageopacity="0"
     inkscape:pageshadow="2"
     inkscape:window-width="1280"
     inkscape:window-height="1000"
     id="namedview10"
     showgrid="false"
     fit-margin-top="0"
     fit-margin-left="0"
     fit-margin-right="0"
     fit-margin-bottom="0"
     inkscape:zoom="10.680141"
     inkscape:cx="-1.4546017"
     inkscape:cy="4.4527879"
     inkscape:window-x="0"
     inkscape:window-y="24"
     inkscape:window-maximized="1"
     inkscape:current-layer="svg2" /><path
     d="m 13.425079,15.249883 -10.849802,0 c -1.092447,0 -1.91627103,-0.385423 -2.32036103,-1.08498 -0.40409,-0.700091 -0.32569,-1.606404 0.220445,-2.552184 L 5.900262,2.2169649 C 6.446041,1.2710069 7.191998,0.75011685 8,0.75011685 c 0.808002,0 1.553959,0.52089005 2.099738,1.46684805 l 5.424901,9.3957541 c 0.546135,0.94578 0.624535,1.852093 0.220445,2.552184 -0.403912,0.699557 -1.227736,1.08498 -2.320005,1.08498 z M 9.107203,11.943031 c 0,-0.563912 -0.457246,-1.021158 -1.021158,-1.021158 -0.563913,0 -1.021158,0.457246 -1.021158,1.021158 0,0.563913 0.457245,1.021158 1.021158,1.021158 0.563912,0 1.021158,-0.457245 1.021158,-1.021158 z m 0.02755,-6.1452581 c 0,-0.579024 -0.469512,-1.048536 -1.048536,-1.048536 -0.579023,0 -1.048535,0.469512 -1.048535,1.048536 l 0.247645,3.7212533 0.0034,0 c 0.03591,0.411023 0.377068,0.7345788 0.797513,0.7345788 0.388801,0 0.713246,-0.2757338 0.788269,-0.6423118 0.006,-0.02969 0.0066,-0.06133 0.0092,-0.09209 l 0.0071,0 0.243912,-3.7214303 z"
     id="path4"
     inkscape:connector-curvature="0"
     style="stroke-width:0.17777818;fill:#4d4d4d" /></svg>