<?xml version="1.0" encoding="UTF-8" standalone="no"?>
<!-- Created with Inkscape (http://www.inkscape.org/) -->
<svg xmlns:rdf="http://www.w3.org/1999/02/22-rdf-syntax-ns#" xmlns="http://www.w3.org/2000/svg" height="326.48" width="652.97" version="1.1" xmlns:cc="http://creativecommons.org/ns#" xmlns:dc="http://purl.org/dc/elements/1.1/" viewBox="0 0 652.96935 326.48032">
 <defs>
  <clipPath id="clipPath4383" clipPathUnits="userSpaceOnUse">
   <rect height="326.48" width="652.97" stroke="#2d2c2b" y="25.64" x="8.7711" stroke-width="1.0315"/>
  </clipPath>
  <filter id="filter10398" style="color-interpolation-filters:sRGB">
   <feColorMatrix values="0.35 0.35 0.35 0.35 0 0.35 0.35 0.35 0.35 0 0.35 0.35 0.35 0.35 0 0 0 0 1 0 "/>
  </filter>
 </defs>
 <metadata>
  <rdf:RDF>
   <cc:Work rdf:about="">
    <dc:format>image/svg+xml</dc:format>
    <dc:type rdf:resource="http://purl.org/dc/dcmitype/StillImage"/>
    <dc:title/>
   </cc:Work>
  </rdf:RDF>
 </metadata>
 <g clip-path="url(#clipPath4383)" transform="translate(-8.7711 -25.642)" filter="url(#filter10398)" stroke-width="1.3333">
  <path d="m0 195.33c0-195.33 0-195.33 346.67-195.33s346.67 0 346.67 195.33 0 195.33-346.67 195.33c-346.67 0.01-346.67 0.01-346.67-195.33z" fill="#f9c294"/>
  <path d="m0 195.33c0-195.33 0-195.33 346.67-195.33s346.67 0 346.56 24.333c-0.0579 13.383-0.38665 23.647-0.73058 22.808-0.34394-0.83882-1.7289-1.2365-3.0776-0.88384-2.158 0.56433-4.6742-1.4187-4.7328-3.73-0.0939-3.704-9.1129-8.0748-15.038-7.2875-9.446 1.2553-22.032 0.76903-24.079-0.93032-0.99396-0.82491-4.0994-1.6169-6.9009-1.7599-7.4176-0.37872-20.421-1.7487-33.107-3.488-8.9238-1.2235-12.066-1.1716-16 0.26429-4.5635 1.6654-9.479 2.4801-17.562 2.9108-4.1619 0.22172-27.321 3.3274-38 5.0958-4.4 0.72864-11.6 1.3213-16 1.317-7.8276-0.0076-10.879 0.40972-34 4.6507-13.311 2.4415-21.026 4.9504-35.107 11.417-3.5424 1.6267-6.746 3.7531-7.1191 4.7253-0.80303 2.0927-9.1411 7.2238-11.739 7.2238-0.99697 0-2.0127 0.51032-2.2571 1.1341-0.52121 1.3299-11.931 8.7569-13.552 8.8217-0.60912 0.02435-1.8753 1.0943-2.8136 2.3776-0.9384 1.2833-3.0139 2.3333-4.6123 2.3333s-5.1322 1.114-7.853 2.4756c-4.1123 2.058-6.499 2.3085-14.147 1.4848-6.7297-0.72477-10.388-0.49448-13.624 0.85772-2.4332 1.0167-5.5252 1.8485-6.8709 1.8485-1.3458 0-4.815 1.7197-7.7095 3.8216s-7.4159 4.5165-10.048 5.3657c-2.6317 0.84929-6.7982 3.0296-9.259 4.8451s-5.4751 3.3009-6.6984 3.3009c-1.2234 0-4.4893 1.8-7.2576 4s-6.153 4-7.5215 4c-3.3361 0-10.241 3.8713-15.145 8.4911-5.482 5.1642-13.497 10.378-20.667 13.444-3.3 1.411-6.9 3.2938-8 4.1838-1.1 0.89007-4.4662 2.3474-7.4805 3.2384-3.0143 0.89107-7.3071 3.3272-9.5396 5.4137-2.2325 2.0864-6.7969 4.4829-10.143 5.3255-8.2348 2.0736-10.215 9.6453-3.4666 13.257 2.8719 1.537 5.3393 0.14965 41.217-23.175 13.087-8.5081 24.705-15.06 28.829-16.259 25.339-7.3662 35.702 18.653 15.888 39.891-9.572 10.261-6.4747 11.937 22.403 12.123 5.7058 0.0369 10.806 0.68985 11.333 1.451 2.6151 3.7738 34.922 6.9093 47.11 4.5722 7.8829-1.5115 20.035-2.6696 32.715-3.1177 4.5097-0.15939 9.0097-0.94436 10-1.7444 2.1766-1.7584 19.485-2.0168 20.542-0.30656 0.41214 0.66685 4.2749 1.2124 8.5839 1.2124s9.4756 0.62395 11.481 1.3866c2.0058 0.7626 6.3948 1.4183 9.7535 1.457 3.3586 0.0388 8.8066 0.68311 12.107 1.4318 11.956 2.7127 14.573 2.5169 29.037-2.1727 20.84-6.7565 23.113-7.7052 28.698-11.979 7.1708-5.4869 15.924-6.6037 30.646-3.9103 9.0988 1.6646 12.51 1.8084 15.084 0.63562 1.8294-0.83353 4.4338-1.5155 5.7875-1.5155s2.8053-0.89656 3.2258-1.9924c1.1228-2.926 8.9742-7.3302 13.078-7.336 1.9564-0.003 6.4748-1.4705 10.041-3.2616 5.7199-2.873 8.0581-4.4735 14.662-10.036 2.0123-1.695 21.188-11.46 26.073-13.277 3.6667-1.3641 3.6667-1.3641 3.6667 129.27s0 130.63-346.67 130.63c-346.65 0.01-346.65 0.01-346.65-195.33z" fill="#e4af92"/>
  <path d="m0 195.33c0-195.33 0-195.33 222.33-195.24 125.26 0.05651 221.17 0.59778 219.67 1.2433-1.4667 0.63025-2.0667 1.1903-1.3333 1.2446 0.73334 0.054284-0.62604 1.2933-3.0208 2.7534s-4.7948 2.5519-5.3333 2.4261c-2.0838-0.48649-12.291 3.0785-14.157 4.9444-1.0806 1.0806-2.942 1.9648-4.1363 1.9648-3.0416 0-26.459 11.317-28.496 13.771-0.92229 1.1113-4.0257 2.4174-6.8965 2.9024-2.8848 0.48739-5.087 1.5777-4.9232 2.4376 0.18711 0.98223-1.9154 1.6096-5.7036 1.702-3.3 0.08044-7.6891 0.83045-9.7535 1.6667-2.0644 0.83622-5.494 1.5204-7.6214 1.5204s-5.8383 0.86663-8.2465 1.9258-6.5706 2.2755-9.2498 2.7029-5.192 1.613-5.584 2.6346c-0.42625 1.1108-3.77 2.2394-8.318 2.8077-4.1829 0.52262-9.1701 1.7667-11.083 2.7647-1.9126 0.99798-4.6774 1.8219-6.144 1.8309-1.4667 0.0091-4.3852 0.91273-6.4858 2.0082-2.1005 1.0955-4.809 1.9918-6.0188 1.9918-3.4918 0-15.647 4.7853-19.965 7.8596-2.18 1.543-5.18 2.806-6.68 2.806-3.6524 0-9.9125 2.8315-11.346 5.1319-0.84189 1.351-1.4151 1.4351-2.1106 0.30974-0.70815-1.1458-1.948-1.1674-4.799-0.08341-2.6846 1.0207-3.3318 1.7783-2.1454 2.5115 1.6805 1.0386-11.843 6.797-15.963 6.797-1.0449 0-3.0833 0.79065-4.5298 1.757s-5.63 2.8465-9.2967 4.1781-8.4667 3.7208-10.667 5.3094c-2.2 1.5886-6.6554 3.7392-9.9009 4.7793-3.2455 1.04-7.7455 3.2595-10 4.9321s-5.8065 4.0918-7.8932 5.376-5.9867 4.0433-8.6667 6.1314c-2.6799 2.0881-8.4726 5.444-12.873 7.4575-4.4 2.0135-10.638 5.8808-13.861 8.5941-3.2238 2.7132-7.0203 5.5534-8.4368 6.3114-1.4924 0.79872-2.2589 2.2028-1.8229 3.3391 0.48334 1.2596-2.697 5.2762-8.8927 11.231-5.3048 5.0986-8.9876 9.2702-8.184 9.2702 0.80363 0 14.602 1.4737 30.663 3.275 57.712 6.4724 51.855 9.7626 48.311-27.138-1.5874-16.53-1.5874-16.53 2.0591-19.667 8.2396-7.0874 10.509-4.4428 20.194 23.53 9.6918 27.993 8.3648 25.929 16.39 25.503 4.218-0.22386 8.2493 0.45298 10.918 1.8332 4.2313 2.1881 4.2313 2.1881 27.113-12.803 38.621-25.303 40.937-26.593 49.286-27.455 23.216-2.3961 27.36 22.518 7.0161 42.184-6.1223 5.9185-0.0453 13.941 8.8068 11.626 1.4082-0.36827 6.5834-0.0781 11.5 0.64484 4.9169 0.72292 13.582 1.3053 19.256 1.2942 6.5784-0.0133 11.651 0.69288 14 1.948 3.9417 2.1058 27.019 1.4474 33.439-0.95408 3.1901-1.1933 17.845-2.606 31.222-3.0098 4.2038-0.12693 8.3738-0.96126 9.2667-1.8541 1.956-1.956 6.4234-2.1578 6.4234-0.29008 0 1.8596 4.8366 1.6661 8.0181-0.32074 2.1081-1.3165 3.189-1.3165 5.2972 0 1.4567 0.90974 5.9176 1.6541 9.9132 1.6541 3.9955 0 8.9057 0.62395 10.912 1.3866 2.0058 0.7626 6.3948 1.4183 9.7535 1.457 3.3586 0.0388 8.8066 0.68311 12.107 1.4318 11.956 2.7127 14.573 2.5169 29.037-2.1727 20.84-6.7565 23.113-7.7052 28.698-11.979 7.1708-5.4869 15.924-6.6037 30.646-3.9103 9.0988 1.6646 12.51 1.8084 15.084 0.63562 1.8294-0.83353 4.4338-1.5155 5.7875-1.5155s2.8053-0.89656 3.2258-1.9924c1.1228-2.926 8.9742-7.3302 13.078-7.336 1.9564-0.003 6.4748-1.4705 10.041-3.2616 5.7199-2.873 8.0581-4.4735 14.662-10.036 2.0123-1.695 21.188-11.46 26.073-13.277 3.6667-1.3641 3.6667-1.3641 3.6667 129.27s0 130.63-346.67 130.63c-346.68 0.01-346.68 0.01-346.68-195.33zm193.33 0.67c0-0.73334-0.6-1.3333-1.3333-1.3333-0.73333 0-1.3333 0.6-1.3333 1.3333 0 0.73333 0.6 1.3333 1.3333 1.3333 0.73334 0 1.3333-0.6 1.3333-1.3333zm-20.325-3.6667c0.35835-1.0913-0.87196-1.6667-3.5638-1.6667-2.8429 0-4.1111 0.64428-4.1111 2.0886 0 2.5409 6.8253 2.1657 7.6749-0.42189zm-25.43-5.1991c-3.145-3.145-52.468-9.2249-52.468-6.4676 0 1.1 1.1 2 2.4444 2s2.4444 0.66419 2.4444 1.476c0 0.81179 0.88078 1.138 1.9573 0.72489 1.0765-0.41309 2.3119-0.17729 2.7454 0.52402 1.1299 1.8282 15.297 1.6303 15.297-0.21374 0-0.93277 1.1205-1.1388 3-0.5517 1.65 0.51542 4.0015 0.92634 5.2256 0.91316 1.2241-0.0133 2.4966 0.68508 2.828 1.5517 0.4011 1.0492 3.3657 1.4231 8.8732 1.1189 4.549-0.2512 7.9924-0.73526 7.6519-1.0757z" fill="#ec9b5c"/>
  <path d="m0 195.33c0-195.33 0-195.33 222.33-195.24 125.26 0.05651 221.17 0.59778 219.67 1.2433-1.4667 0.63025-2.0667 1.1903-1.3333 1.2446 0.73334 0.054284-0.62604 1.2933-3.0208 2.7534s-4.7948 2.5519-5.3333 2.4261c-2.0838-0.48649-12.291 3.0785-14.157 4.9444-1.0806 1.0806-2.942 1.9648-4.1363 1.9648-3.0416 0-26.459 11.317-28.496 13.771-0.92229 1.1113-4.0257 2.4174-6.8965 2.9024-2.8848 0.48739-5.087 1.5777-4.9232 2.4376 0.18711 0.98223-1.9154 1.6096-5.7036 1.702-3.3 0.08044-7.6891 0.83045-9.7535 1.6667-2.0644 0.83622-5.494 1.5204-7.6214 1.5204s-5.8383 0.86663-8.2465 1.9258-6.5706 2.2755-9.2498 2.7029-5.192 1.613-5.584 2.6346c-0.42625 1.1108-3.77 2.2394-8.318 2.8077-4.1829 0.52262-9.1701 1.7667-11.083 2.7647-1.9126 0.99798-4.6774 1.8219-6.144 1.8309-1.4667 0.0091-4.3852 0.91273-6.4858 2.0082-2.1005 1.0955-4.809 1.9918-6.0188 1.9918-3.4918 0-15.647 4.7853-19.965 7.8596-2.18 1.543-5.18 2.806-6.68 2.806-3.6524 0-9.9125 2.8315-11.346 5.1319-0.84189 1.351-1.4151 1.4351-2.1106 0.30974-0.70815-1.1458-1.948-1.1674-4.799-0.08341-2.6846 1.0207-3.3318 1.7783-2.1454 2.5115 1.6805 1.0386-11.843 6.797-15.963 6.797-1.0449 0-3.0833 0.79065-4.5298 1.757s-5.63 2.8465-9.2967 4.1781-8.4667 3.7208-10.667 5.3094c-2.2 1.5886-6.6554 3.7392-9.9009 4.7793-3.2455 1.04-7.7455 3.2595-10 4.9321s-5.8065 4.0918-7.8932 5.376-5.9867 4.0433-8.6667 6.1314c-2.6799 2.0881-8.4726 5.444-12.873 7.4575-4.4 2.0135-10.638 5.8808-13.861 8.5941-3.2238 2.7132-7.0203 5.5534-8.4368 6.3114-1.4924 0.79872-2.2589 2.2028-1.8229 3.3391 0.48334 1.2596-2.697 5.2762-8.8927 11.231-5.3048 5.0986-8.9876 9.2702-8.184 9.2702 0.80363 0 14.602 1.4798 30.663 3.2884 53.474 6.0217 51.543 6.0504 50.688-0.75403-3.9335-31.324-4.0086-42.89-0.29932-46.08 7.0126-6.032 7.5799-5.2914 16.761 21.879 10.334 30.584 10.102 30.09 13.353 28.35 3.8784-2.0757 13.192-1.6034 17.4 0.88239 3.7796 2.2326 3.7796 2.2326 26.872-12.896 37.763-24.74 41.125-26.641 48.692-27.537 13.902-1.6465 17.735 1.3185 17.735 13.719 0 9.3351-0.50258 10.259-13.667 25.131-2.75 3.1068-5 6.2386-5 6.9596 0 4.3015 26.765 16.47 30.751 13.981 6.4261-4.0132 17.075-1.0472 20.266 5.6445 2.0546 4.3085 2.0546 4.3085 58.387 18.437 62.502 15.676 55.958 15.435 66.281 2.4451 1.4059-1.769 2.9073-2.6482 3.3366-1.9536 0.78214 1.2655-10.548 20.6-14.228 24.28-2.3356 2.3356-7.8018 1.6995-62.128-7.2299-35.333-5.8076-35.333-5.8076-39.129-1.1774-5.4996 6.7084-8.8707 6.2538-8.8707-1.1963 0-8.4349-10.291-10.139-16.43-2.7213-3.8125 4.6068-7.3811 5.9254-7.7976 2.8812-0.12547-0.91666-0.27544-3.1613-0.33333-4.9882-0.21071-6.6477-9.2699-7.7435-15.735-1.9031-5.6991 5.1488-7.2464 4.8695-7.9348-1.4323-0.50649-4.6362-4.5239-5.6354-24.132-6.0024-38.972-0.72938-42.316 5.9826-7.6373 15.33 30.117 8.118 32.424 9.5791 25.299 16.027-2.6262 2.3766-3.7219 2.2918-39.667-3.0722-37.983-5.6682-50.581-5.6316-59.975 0.17411-6.7673 4.1824-29.658-4.3523-29.658-11.058 0-3.7317 0-3.7317-19-7.367-10.45-1.9994-27.7-5.316-38.333-7.37-41.276-7.9733-45.937-8.2413-39.494-2.2704 2.9641 2.747 3.6157 4.2679 2.9554 6.8986-0.7074 2.8185-0.12849 3.8005 3.5127 5.9586 2.3978 1.4212 4.9596 3.2122 5.693 3.9801 0.73334 0.76785 2.5333 2.6535 4 4.1904 1.4667 1.5368 4.6167 3.6136 7 4.615s4.3333 2.4513 4.3333 3.222c0 0.77076 0.9 1.4014 2 1.4014s2 0.6 2 1.3333c0 0.73333 0.45 1.2381 1 1.1216 0.55-0.1164 1.9 0.14268 3 0.57579 1.1 0.43312 6.0525 2.1102 11.006 3.7269 4.9531 1.6167 10.295 4.0576 11.871 5.4242 1.5758 1.3666 3.476 2.4848 4.2227 2.4848 0.74672 0 2.4377 0.97742 3.7578 2.172 3.9021 3.5314 12.251 4.595 41.143 5.2415 15.033 0.33634 29.14 1.2051 31.348 1.9306 2.7415 0.90073 5.4902 0.85153 8.6667-0.1551 6.5583-2.0783 26.709-2.5856 39.319-0.98986 9.114 1.1534 12.219 0.97497 21.331-1.2257 7.8628-1.899 11.833-2.253 15.111-1.3479 4.6684 1.289 18.673 0.82384 21.142-0.70224 0.79329-0.49028 3.1912-0.28176 5.3288 0.46338 2.753 0.95972 8.3385 0.80666 19.153-0.52482 8.3967-1.0338 15.867-1.4384 16.6-0.89918 0.73333 0.53925 6.1333 0.68754 12 0.32957 5.8667-0.35799 15.467-0.56665 21.333-0.46371 5.8667 0.10294 15.767-0.82353 22-2.0588 6.2333-1.2353 16.133-2.3745 22-2.5315 38.972-1.0432 57.006-3.1729 61.339-7.2435 7.8957-7.4176 27.19-8.7392 36.872-2.5258 4.949 3.1758 6.839 3.7528 8.8196 2.6929 1.3864-0.742 5.3503-1.4956 8.8087-1.6746 6.4768-0.33527 11.494-2.7644 11.494-5.5652 0-6.3172 23.842-10.266 28.793-4.7691 2.7325 3.0334 8.3716 5.8398 10.54 5.2455 0.73333-0.201 5.0316-1.1557 9.5517-2.1216s10.032-2.6941 12.249-3.8404c2.2168-1.1464 4.9424-1.7343 6.057-1.3066 1.2427 0.47685 3.9332-1.074 6.9557-4.0094 2.711-2.6329 5.749-4.7871 6.7511-4.7871s4.06-1.4126 6.7955-3.1391c4.6444-2.9314 25.744-14.194 26.591-14.194 0.21061 0 0.38293 40.5 0.38293 90 0 90 0 90-346.67 90-346.68 0.03-346.68 0.03-346.68-195.31zm195.74 4.9026c0.54309-7.3662-4.4855-10.503-9.4229-5.8781-7.1607 6.7077-14.109 5.912-12.273-1.4055 1.1508-4.585-7.4496-5.91-13.035-2.0082-7.5042 5.2425-13.551 4.8904-12.638-0.73592 0.53828-3.317 0.28524-4.8758-0.79174-4.8776-0.87056-0.001-11.739-1.5015-24.153-3.3333-24.235-3.5763-29.317-3.9724-28.221-2.1992 0.38459 0.62226-0.45574 2.3711-1.8674 3.8864-9.8752 10.6-9.0549 10.827 70.659 19.552 33.803 3.6999 31.231 3.943 31.743-3.0002z" fill="#b08c8b"/>
  <path d="m0 195.33c0-195.33 0-195.33 131.67-195.13 72.417 0.10988 130.01 0.45071 127.98 0.75741-2.0291 0.3067-3.3546 1.0992-2.9455 1.7611 0.40909 0.66192-0.93074 1.5427-2.9774 1.9572-3.6031 0.72976-13.26 4.9415-23.236 10.134-2.6665 1.388-6.0018 2.5236-7.4118 2.5236s-6.1283 2.1697-10.485 4.8215c-4.7825 2.9109-10.035 4.9816-13.255 5.2254-4.8793 0.36955-14.701 3.0775-21.333 5.8816-1.4667 0.62013-7.7667 2.7538-14 4.7415s-13.583 5.0586-16.333 6.8243-5 2.7895-5 2.2753c0-0.51427-1.7592 0.7504-3.9094 2.8104s-6.2002 5.128-9 6.8177c-2.7998 1.6898-4.7906 3.5666-4.424 4.1707 0.36667 0.60411-1.8347 2.2984-4.892 3.765-3.0573 1.4667-5.8627 3.7612-6.2344 5.099-0.37164 1.3378-1.8694 2.7444-3.3284 3.126-1.459 0.38153-3.0022 2.0861-3.4293 3.788-0.43166 1.7199-2.5616 3.8844-4.7952 4.8731-2.2102 0.97835-4.352 2.8292-4.7595 4.1131-0.40748 1.2838-1.9004 2.3343-3.3177 2.3343-1.4172 0-2.5768 0.6-2.5768 1.3333 0 0.73333-1.05 1.3364-2.3333 1.34-3.2964 0.0095-15.153 9.2806-18.333 14.335-1.4667 2.3312-3.6665 4.5826-4.8886 5.003-1.222 0.42043-2.8211 2.4833-3.5535 4.5842-0.73236 2.1009-2.6021 4.223-4.155 4.7159-1.5529 0.49286-5.6538 3.9455-9.1132 7.6724-3.4594 3.727-6.9544 7.4176-7.7666 8.2014-1.0727 1.035-0.83269 1.7976 0.87696 2.7866 1.2946 0.74891 7.0849 5.5988 12.867 10.778 12.548 11.238 3.1212 9.6665 128.28 21.379 10.595 0.9915 11.075-1.6204 7.3011-39.703-0.88273-8.9076-0.88273-8.9076 3.6125-11.641 6.1568-3.7442 6.3298-3.4764 15.785 24.44 9.5419 28.172 7.6228 25.517 18.057 24.98 6.2754-0.32272 9.3332 0.1503 11.917 1.8435 3.476 2.2776 3.476 2.2776 26.462-12.76 43.313-28.336 46.871-30.086 56.688-27.872 7.5829 1.7102 9.6314 4.5914 9.6314 13.547 0 8.4674-0.72584 9.7513-13.93 24.638-6.6835 7.5357-6.0688 8.6786 8.6424 16.069 8.5562 4.2981 12.255 5.487 15.287 4.9139 15.001-2.8353 18.327-1.7602 24 7.7563 0.96041 1.6112 16.961 6.1348 57.21 16.174 61.997 15.463 55.503 15.239 65.809 2.2699 1.4059-1.769 2.9073-2.6482 3.3366-1.9536 0.78214 1.2655-10.548 20.6-14.228 24.28-2.3356 2.3356-7.8018 1.6995-62.128-7.2299-35.333-5.8076-35.333-5.8076-39.129-1.1774-5.4996 6.7084-8.8707 6.2538-8.8707-1.1963 0-8.4349-10.291-10.139-16.43-2.7213-3.8125 4.6068-7.3811 5.9254-7.7976 2.8812-0.12547-0.91666-0.27544-3.1613-0.33333-4.9882-0.21071-6.6477-9.2699-7.7435-15.735-1.9031-5.6991 5.1488-7.2464 4.8695-7.9348-1.4323-0.50649-4.6362-4.5239-5.6354-24.132-6.0024-38.972-0.72938-42.316 5.9826-7.6373 15.33 30.117 8.118 32.424 9.5791 25.299 16.027-2.6262 2.3766-3.7219 2.2918-39.667-3.0722-37.983-5.6682-50.581-5.6316-59.975 0.17411-6.7305 4.1597-29.658-4.3484-29.658-11.006 0-3.6795 0-3.6795-27.667-9.2894-91.707-18.595-89.737-18.003-78.169-23.493 5.2091-2.4719 5.5991-2.4647 34.502 0.63266 6.6 0.70728 17.7 1.8826 24.667 2.6117 6.9667 0.72914 21.367 2.2437 32 3.3657 27.162 2.866 25.333 3.1321 25.333-3.6881 0-8.3119-5.158-11.964-9.5029-6.729-5.4059 6.5137-14.233 6.1138-11.706-0.53029 2.3097-6.0751-6.4863-7.9712-13.572-2.9256-2.1229 1.5116-6.06 3.1055-8.7492 3.5419-5.1686 0.83874-5.3534 0.35332-2.4993-6.5678 1.1656-2.8266 4.1708-2.1418-45.584-10.388-45.399-7.5247-64.386-18.174-64.386-36.111 0-4.9505-18.893 16.942-20.994 24.328-4.7238 16.603-3.9231 22.862 3.7402 29.236 3.8886 3.2342 9.5448 8.2804 12.569 11.214 3.0246 2.9333 7.416 6.988 9.7587 9.0103s4.2595 4.5723 4.2595 5.6667 0.49861 1.9897 1.108 1.9897c0.60942 0 1.9108 1.5 2.892 3.3333 0.98117 1.8333 2.5826 3.3333 3.5586 3.3333 0.97608 0 1.7747 0.47064 1.7747 1.0458 0 0.57523 1.95 2.2008 4.3333 3.6123 3.7156 2.2006 8.5597 3.3025 23 5.2317 9.2421 1.2348 15.95 2.6913 25.526 5.543 5.9727 1.7786 12.035 3.2338 13.471 3.2338 3.9425 0 19.967 6.1068 22.394 8.5344 1.1727 1.1727 2.7921 2.1322 3.5987 2.1322 0.80653 0 2.5465 0.97742 3.8665 2.172 3.9021 3.5314 12.251 4.595 41.143 5.2415 15.033 0.33634 29.14 1.2051 31.348 1.9306 2.7415 0.90073 5.4902 0.85153 8.6667-0.1551 6.5583-2.0783 26.709-2.5856 39.319-0.98986 9.114 1.1534 12.219 0.97497 21.331-1.2257 7.8628-1.899 11.833-2.253 15.111-1.3479 4.6684 1.289 18.673 0.82384 21.142-0.70224 0.79329-0.49028 3.1912-0.28176 5.3288 0.46338 2.753 0.95972 8.3385 0.80666 19.153-0.52482 8.3967-1.0338 15.867-1.4384 16.6-0.89918 0.73333 0.53925 6.1333 0.68754 12 0.32957 5.8667-0.35799 15.467-0.56665 21.333-0.46371 5.8667 0.10294 15.767-0.82353 22-2.0588 6.2333-1.2353 16.133-2.3745 22-2.5315 38.972-1.0432 57.006-3.1729 61.339-7.2435 7.8957-7.4176 27.19-8.7392 36.872-2.5258 4.949 3.1758 6.839 3.7528 8.8196 2.6929 1.3864-0.742 5.3503-1.4956 8.8087-1.6746 6.4768-0.33527 11.494-2.7644 11.494-5.5652 0-6.3172 23.842-10.266 28.793-4.7691 2.7325 3.0334 8.3716 5.8398 10.54 5.2455 0.73333-0.201 5.0316-1.1557 9.5517-2.1216s10.032-2.6941 12.249-3.8404c2.2168-1.1464 4.9424-1.7343 6.057-1.3066 1.2427 0.47685 3.9332-1.074 6.9557-4.0094 2.711-2.6329 5.749-4.7871 6.7511-4.7871s4.06-1.4126 6.7955-3.1391c4.6444-2.9314 25.744-14.194 26.591-14.194 0.21061 0 0.38293 40.5 0.38293 90 0 90 0 90-346.67 90-346.65 0.03-346.65 0.03-346.65-195.31z" fill="#917984"/>
  <path d="m0.012938 258.52c0.038364-134.23 0.42217-144.45 4.6943-125 0.84323 3.8392 0.9809 3.9077 3.419 1.7012 2.4316-2.2006 2.5396-2.1617 2.52 0.90759-0.0163 2.5597-0.2812 2.8031-1.3129 1.2066-0.77661-1.2017-1.3006-1.3662-1.3129-0.41203-0.011227 0.87339 0.5577 1.9453 1.2643 2.382 0.72005 0.44501 0.16531 1.9134-1.2622 3.3409-3.1375 3.1375-2.9556 10.613 0.33825 13.907 2.5015 2.5014 2.9128 4.2496 1.2427 5.2818-2.5437 1.5721 0.080043 11.5 3.0392 11.5 1.7725 0 3.3573 5.7083 3.3573 12.093 0 2.9012 1.577 5.0699 6.9079 9.5 3.7994 3.1574 9.3826 8.1406 12.407 11.074 3.0246 2.9333 7.416 6.988 9.7587 9.0103s4.2595 4.5723 4.2595 5.6667 0.49861 1.9897 1.108 1.9897c0.60942 0 1.9108 1.5 2.892 3.3333 0.98117 1.8333 2.5826 3.3333 3.5586 3.3333 0.97608 0 1.7747 0.47064 1.7747 1.0458 0 0.57523 1.95 2.2008 4.3333 3.6123 3.7156 2.2006 8.5597 3.3025 23 5.2317 9.2421 1.2348 15.95 2.6913 25.526 5.543 5.9727 1.7786 12.035 3.2338 13.471 3.2338 3.9425 0 19.967 6.1068 22.394 8.5344 1.1727 1.1727 2.7921 2.1322 3.5987 2.1322 0.80653 0 2.5465 0.97742 3.8665 2.172 3.9021 3.5314 12.251 4.595 41.143 5.2415 15.033 0.33634 29.14 1.2051 31.348 1.9306 2.7415 0.90073 5.4902 0.85153 8.6667-0.1551 6.5583-2.0783 26.709-2.5856 39.319-0.98986 9.114 1.1534 12.219 0.97497 21.331-1.2257 7.8628-1.899 11.833-2.253 15.111-1.3479 4.6684 1.289 18.673 0.82384 21.142-0.70224 0.79329-0.49028 3.1912-0.28176 5.3288 0.46338 2.753 0.95972 8.3385 0.80666 19.153-0.52482 8.3967-1.0338 15.867-1.4384 16.6-0.89918 0.73333 0.53925 6.1333 0.68754 12 0.32957 5.8667-0.35799 15.467-0.56665 21.333-0.46371 5.8667 0.10294 15.767-0.82353 22-2.0588 6.2333-1.2353 16.133-2.3745 22-2.5315 38.972-1.0432 57.006-3.1729 61.339-7.2435 7.8957-7.4176 27.19-8.7392 36.872-2.5258 4.949 3.1758 6.839 3.7528 8.8196 2.6929 1.3864-0.742 5.3503-1.4956 8.8087-1.6746 6.4768-0.33527 11.494-2.7644 11.494-5.5652 0-6.3172 23.842-10.266 28.793-4.7691 2.7325 3.0334 8.3716 5.8398 10.54 5.2455 0.73333-0.201 5.0316-1.1557 9.5517-2.1216s10.032-2.6941 12.249-3.8404c2.2168-1.1464 4.9424-1.7343 6.057-1.3066 1.2427 0.47685 3.9332-1.074 6.9557-4.0094 2.711-2.6329 5.749-4.7871 6.7511-4.7871s4.06-1.4126 6.7955-3.1391c4.6444-2.9314 25.744-14.194 26.591-14.194 0.21061 0 0.38293 40.5 0.38293 90 0 90 0 90-346.68 90s-346.68 0-346.64-132.14zm271.99-17.29c-34.019-5.3438-45.622-5.2746-56.372 0.33604-7.9621 4.1557-30.295-3.7837-30.295-10.77 0-3.6795 0-3.6795-27.667-9.2894-91.707-18.595-89.737-18.003-78.169-23.493 5.2091-2.4719 5.5991-2.4647 34.502 0.63266 6.6 0.70728 17.7 1.8826 24.667 2.6117 6.9667 0.72914 21.367 2.2437 32 3.3657 27.162 2.866 25.333 3.1321 25.333-3.6881 0-8.3119-5.158-11.964-9.5029-6.729-5.4059 6.5137-14.233 6.1138-11.706-0.53029 2.3097-6.0751-6.4863-7.9712-13.572-2.9256-2.1229 1.5116-6.06 3.1055-8.7492 3.5419-5.1686 0.83874-5.3534 0.35332-2.4993-6.5678 1.16-2.8129 4.3823-2.077-45.72-10.442-48.246-8.0547-45.431-6.9449-55.152-21.748-12.368-18.835-10.102-21.44 6.1055-7.02 12.315 10.956 11.445 10.636 34.797 12.801 15.335 1.4212 24.493 2.2854 70.667 6.6685 15.4 1.4619 29.142 2.664 30.537 2.6713 2.6551 0.014 2.6477-13.283-0.0225-40.228-0.88273-8.9076-0.88273-8.9076 3.6125-11.641 6.1568-3.7442 6.3298-3.4764 15.785 24.44 9.542 28.172 7.6228 25.517 18.057 24.98 6.2132-0.31952 9.3395 0.15444 11.844 1.7956 1.9019 1.2462 4.1641 1.784 5.1283 1.2193 2.5112-1.4708 17.895-11.4 37.686-24.322 35.005-22.857 50.039-24.072 50.039-4.0441 0 8.594-0.69113 9.822-13.93 24.748-6.6835 7.5357-6.0688 8.6786 8.6424 16.069 8.5562 4.2981 12.255 5.487 15.287 4.9139 15.001-2.8353 18.327-1.7602 24 7.7563 0.96041 1.6112 16.961 6.1348 57.21 16.174 61.997 15.463 55.503 15.239 65.809 2.2699 1.4059-1.769 2.9073-2.6482 3.3366-1.9536 0.78214 1.2655-10.548 20.6-14.228 24.28-2.3356 2.3356-7.8018 1.6995-62.128-7.2299-35.333-5.8076-35.333-5.8076-39.129-1.1774-5.4996 6.7084-8.8707 6.2538-8.8707-1.1963 0-8.4349-10.291-10.139-16.43-2.7213-3.8125 4.6068-7.3811 5.9254-7.7976 2.8812-0.12547-0.91666-0.27544-3.1613-0.33333-4.9882-0.21071-6.6477-9.2699-7.7435-15.735-1.9031-5.6991 5.1488-7.2464 4.8695-7.9348-1.4323-0.50649-4.6362-4.5239-5.6354-24.132-6.0024-38.972-0.72938-42.316 5.9826-7.6373 15.33 29.889 8.0565 32.396 9.6046 25.562 15.789-3.1926 2.8892-4.5979 2.7834-42.895-3.2325zm-271.8-178.23c-0.19978-63-0.19978-63 66.467-63 36.667 0 66.667 0.20835 66.667 0.46301s-4.35 2.7125-9.6667 5.4619-11.872 6.7337-14.568 8.8541c-2.6959 2.1203-6.5959 4.602-8.6667 5.5148-6.4731 2.8534-19.394 11.561-22.99 15.494-1.893 2.0702-4.4918 4.1461-5.7751 4.6131-1.2833 0.46698-2.3333 1.727-2.3333 2.8001s-1.9446 3.3357-4.3214 5.0281-6.1268 5.1707-8.3333 7.7295c-4.7536 5.5124-7.7604 8.4071-17.626 16.968-4.0603 3.5236-8.3583 7.483-9.551 8.7985-1.1927 1.3156-5.1686 5.552-8.8353 9.4144-8.6431 9.1045-11.333 12.854-11.333 15.798 0 2.0773-2.4637 3.044-6.7333 2.6423-0.40333-0.038-0.73333 1.391-0.73333 3.1754s0.63 3.2536 1.4 3.2649c0.8504 0.0124 0.79295 0.40667-0.14636 1.0043-0.8505 0.54115-1.8106 2.782-2.1336 4.9796-0.32421 2.2-0.67835-24.35-0.78822-59z" fill="#e46735"/>
  <path d="m0.012938 258.52c0.038364-134.23 0.42217-144.45 4.6943-125 0.84323 3.8392 0.9809 3.9077 3.419 1.7012 2.4316-2.2006 2.5396-2.1617 2.52 0.90759-0.0163 2.5597-0.2812 2.8031-1.3129 1.2066-0.77661-1.2017-1.3006-1.3662-1.3129-0.41203-0.011227 0.87339 0.5577 1.9453 1.2643 2.382 0.72005 0.44501 0.16531 1.9134-1.2622 3.3409-3.1375 3.1375-2.9556 10.613 0.33825 13.907 2.5015 2.5014 2.9128 4.2496 1.2427 5.2818-2.5437 1.5721 0.080043 11.5 3.0392 11.5 1.7725 0 3.3573 5.7083 3.3573 12.093 0 2.9012 1.577 5.0699 6.9079 9.5 3.7994 3.1574 9.3826 8.1406 12.407 11.074 3.0246 2.9333 7.416 6.988 9.7587 9.0103s4.2595 4.5723 4.2595 5.6667 0.49861 1.9897 1.108 1.9897c0.60942 0 1.9108 1.5 2.892 3.3333 0.98117 1.8333 2.5826 3.3333 3.5586 3.3333 0.97608 0 1.7747 0.47064 1.7747 1.0458 0 0.57523 1.95 2.2008 4.3333 3.6123 3.7156 2.2006 8.5597 3.3025 23 5.2317 9.2421 1.2348 15.95 2.6913 25.526 5.543 5.9727 1.7786 12.035 3.2338 13.471 3.2338 3.4668 0 20.587 6.2486 21.597 7.8825 0.43646 0.70621 2.4614 1.9181 4.4998 2.6931 2.1244 0.80767 4.259 2.9774 5.0014 5.0834 1.459 4.1391 7.3755 7.3016 18.13 9.6906 3.7903 0.842 7.9903 2.3637 9.3333 3.3816 1.3431 1.0179 3.3854 1.8697 4.5385 1.8931 1.1531 0.0233 5.3531 1.8037 9.3333 3.9564s12.337 5.4122 18.57 7.2433c6.2333 1.8312 15.533 4.794 20.667 6.5842 5.1333 1.7901 13.233 4.3117 18 5.6035 4.7667 1.2918 13.191 3.7181 18.721 5.3919 5.5298 1.6738 13.93 3.7808 18.667 4.6823 4.7369 0.90147 13.113 2.7711 18.613 4.1548 24.614 6.1923 28.568 6.6618 37.889 4.5001 7.4398-1.7254 12.64-1.7877 37.244-0.44596 31.074 1.6946 43.66 0.65437 47.533-3.9285 5.0439-5.9677 14.955-8.1943 25.743-5.7838 28.189 6.2984 36.86 6.6047 43.704 1.5441 4.5559-3.3684 13.509-5.8563 20.346-5.6539 5.2943 0.15676 15.318-7.8126 18.886-15.016 1.9719-3.9809 9.3115-4.5458 11.28-0.86824 1.735 3.2418 8.2192 3.7438 10.643 0.82378 1.6891-2.0352 5.3991-1.4055 5.3991 0.91642 0 0.75735-1.05 2.1503-2.3333 3.0954-1.9708 1.4514-2.0226 1.8075-0.33333 2.292 1.1 0.31548 4.1426 1.2583 6.7613 2.0952 11.883 3.7974 21.474 1.461 20.444-4.9801-2.193-13.714 13.246-16.338 19.547-3.3221 7.8428 16.201 23.008 17.494 37.915 3.2316 12.022-11.502 23.841-15.369 29.773-9.741 2.1255 2.0167 5.7462 4.6888 8.046 5.938 4.1815 2.2713 4.1815 2.2713 4.1815 51s0 48.729-346.68 48.729-346.68 0-346.64-132.14zm276.66-17.25c-55.772-8.2429-56.785-8.2999-61.286-3.4439-6.6425 7.1674-30.048 1.6068-30.048-7.1388 0-3.5696 0-3.5696-27.667-9.1795-91.707-18.595-89.737-18.003-78.169-23.493 5.2091-2.4719 5.5991-2.4647 34.502 0.63266 6.6 0.70728 17.7 1.8826 24.667 2.6117 6.9667 0.72914 21.367 2.2437 32 3.3657 27.162 2.866 25.333 3.1321 25.333-3.6881 0-9.6391-8.713-12.581-16.152-5.4544-4.4049 4.2202-7.0074 3.324-5.0787-1.7489 2.5682-6.7548-14.789-8.8491-19.864-2.3968-3.0702 3.9031-7.5777 4.5918-6.545 1 0.36898-1.2833 1.0935-3.3582 1.6101-4.6108 1.16-2.8129 4.3823-2.077-45.72-10.442-48.246-8.0547-45.431-6.9449-55.152-21.748-12.368-18.835-10.102-21.44 6.1055-7.02 12.315 10.956 11.445 10.636 34.797 12.801 15.335 1.4212 24.493 2.2854 70.667 6.6685 15.4 1.4619 29.05 2.664 30.333 2.6713 2.8814 0.0165 3.091-8.2531 0.81636-32.212-1.3998-14.745-1.3339-16.151 0.8545-18.21 1.3043-1.2272 1.9831-1.5324 1.5085-0.67828-3.5907 6.4621 3.0928 48.447 7.7121 48.447 1.6599 0 5.7295 0.81602 9.0434 1.8134 5.0137 1.5089 6.5604 1.5168 9.2119 0.0472 4.4808-2.4835 16.558-2.3337 20.508 0.25431 1.7887 1.172 3.997 1.6644 4.9531 1.1044 2.5112-1.4708 17.895-11.4 37.686-24.322 27.636-18.046 38.149-21.39 46.526-14.8 5.9084 4.6476 4.5974 6.807-12.154 20.018-24.045 18.964-31.933 27.517-22.667 24.578 1.65-0.52335 4.2-0.86795 5.6667-0.76576 1.4667 0.10213 5.2607 0.15152 8.4313 0.1096 3.6777-0.0485 6.896 0.81384 8.8899 2.3822 7.5227 5.9174 23.298 11.467 27.884 9.8091 9.4812-3.4284 16.067-0.93929 21.462 8.1121 0.96041 1.6112 16.961 6.1348 57.21 16.174 62.088 15.486 55.263 15.263 65.978 2.153 5.4668-6.6892 2.8987 0.85977-3.7653 11.068-9.6624 14.801-2.5116 14.446-71.316 3.5464-35.895-5.6861-35.895-5.6861-39.044-2.0245-3.8324 4.4554-7.0612 3.6654-7.0612-1.7277 0-5.9238-13.722-7.6976-18.004-2.3273-3.4799 4.3642-5.9962 4.4392-5.9962 0.17872 0-6.8103-12.904-9.5682-18.715-4.0001-4.0704 3.8996-3.8323 4.0049-5.8625-2.5914-0.86349-2.8056-27.514-4.8096-42.089-3.1649-2.7583 0.31125-3.4061-0.25642-3.7552-3.2905-0.51035-4.4354-8.7542-5.1821-17.288-1.566-2.7264 1.1554-7.2336 2.5054-10.016 3-11.496 2.0438-8.3724 3.3407 40.725 16.908 28.539 7.8861 29.364 8.3282 26.286 14.079-1.8161 3.3935-6.0484 3.2276-37.953-1.4879zm-70.82-37.886c3.0175-4.6053 2.7209-8.2541-0.74471-9.1604-4.1578-1.0873-5.102-0.0442-5.102 5.6366 0 7.5924 2.2803 8.9667 5.8467 3.5238zm-151.22-53.42c-6.5977-6.7225-8.8359-5.7745-3.3493 1.4187 2.1031 2.7573 4.6877 4.6237 6.4031 4.6237 2.4971 0 2.0944-0.7968-3.0537-6.0424zm-54.425-86.96c-0.19978-63-0.19978-63 66.467-63 36.667 0 66.667 0.20835 66.667 0.46301s-4.35 2.7125-9.6667 5.4619-11.872 6.7337-14.568 8.8541c-2.6959 2.1203-6.5959 4.602-8.6667 5.5148-6.4731 2.8534-19.394 11.561-22.99 15.494-1.893 2.0702-4.4918 4.1461-5.7751 4.6131-1.2833 0.46698-2.3333 1.727-2.3333 2.8001s-1.9446 3.3357-4.3214 5.0281-6.1268 5.1707-8.3333 7.7295c-4.7536 5.5124-7.7604 8.4071-17.626 16.968-4.0603 3.5236-8.3583 7.483-9.551 8.7985-1.1927 1.3156-5.1686 5.552-8.8353 9.4144-8.6431 9.1045-11.333 12.854-11.333 15.798 0 2.0773-2.4637 3.044-6.7333 2.6423-0.40333-0.038-0.73333 1.391-0.73333 3.1754s0.63 3.2536 1.4 3.2649c0.8504 0.0124 0.79295 0.40667-0.14636 1.0043-0.8505 0.54115-1.8106 2.782-2.1336 4.9796-0.32421 2.2-0.67835-24.35-0.78822-59zm195.8 55.14c0-0.28821 0.9-0.86938 2-1.2915 1.1-0.42211 2-0.1863 2 0.52402s-0.9 1.2915-2 1.2915-2-0.2358-2-0.52401z" fill="#9b655e"/>
  <path d="m0 324.04c0-62.958 0.12839-66.567 2.3333-65.585 1.2833 0.57103 4.7333 2.1316 7.6667 3.4678 2.9333 1.3363 9.0745 3.7466 13.647 5.3562 4.6399 1.6334 12.005 5.819 16.667 9.4722 4.5942 3.6001 11.353 7.5239 15.02 8.7196 3.6667 1.1958 8.4667 3.1497 10.667 4.3421 2.2 1.1924 4.63 2.1718 5.4 2.1763 0.77 0.004 2.1223 0.73048 3.005 1.6132 1.8251 1.8251 12.636 4.9145 17.507 5.0028 1.7851 0.0324 5.9355 1.3609 9.2229 2.9524 9.175 4.4415 19.463 6.7119 35.531 7.8408 8.0667 0.56675 21.567 1.9918 30 3.1666 8.4333 1.1749 20.733 2.7071 27.333 3.4049 6.6 0.69781 14.4 1.8709 17.333 2.6068 2.9333 0.73596 10.133 1.979 16 2.7623 5.8667 0.78334 16.436 2.5923 23.487 4.0199 7.0511 1.4276 15.151 2.9228 18 3.3226 2.8489 0.39982 6.6798 1.0791 8.5132 1.5095 3.8119 0.89493 46.615 2.17 73.333 2.1844 10.935 0.005 20.093-0.65733 23.333-1.6898 3.3095-1.0546 17.476-2.0287 37.333-2.5671 24.174-0.65544 32.815-1.3378 35.333-2.7905 2.5633-1.4787 9.5227-1.9719 30.125-2.135 28.101-0.22247 32.846-1.0766 31.639-5.6945-0.7279-2.7835 0.713-4.0446 7.2364-6.3334 3.5321-1.2392 4.3333-1.1796 4.3333 0.32255 0 3.2543 6.4817 2.0859 9.6755-1.7442 1.6452-1.9729 5.156-6.0229 7.8019-9s5.517-6.7629 6.3803-8.4129c1.9432-3.7142 5.6233-3.8535 8.809-0.33333 2.5589 2.8276 10.529 3.7132 12 1.3333 0.45322-0.73333 1.5386-1.3142 2.412-1.2909 0.87672 0.0235 0.54288 0.83574-0.74536 1.8137-5.2485 3.9842-2.8338 5.4889 11.722 7.3046 15.58 1.9435 18.238 1.0389 17.204-5.8555-1.939-12.931 11.875-15.482 17.296-3.1946 1.2621 2.8605 4.16 7.0662 6.4398 9.3461 3.5513 3.5513 3.9159 4.5124 2.5448 6.7078-3.6411 5.8303 8.6378 4.9821 21.398-1.4781 14.755-7.4701 26.72-10.775 36.799-10.164 4.9114 0.2977 9.9799 0.60196 11.263 0.6761 2.1752 0.12574 2.3333 3.2973 2.3333 46.801 0 46.667 0 46.667-346.67 46.667-346.64 0.01-346.64 0.01-346.64-66.62zm225.33 18.787c0-5.1107-34.569-12.117-39.519-8.0095-5.9558 4.9429 1.9966 7.199 17.654 5.0086 10.245-1.4332 11.275-1.3525 15.421 1.2071 5.0048 3.0898 6.4429 3.4902 6.4429 1.7938zm-49.333-3.4179c0-0.32339-0.6-0.9588-1.3333-1.412-0.73333-0.45322-1.3333-0.18864-1.3333 0.58798 0 0.77661 0.6 1.412 1.3333 1.412 0.73333 0 1.3333-0.26458 1.3333-0.58797zm96-100.09c-36.042-5.559-51.142-6.2903-56.447-2.7339-9.5942 6.4323-28.816 1.3967-28.866-7.5622-0.0152-2.7034-0.7931-3.7937-3.0204-4.2332-1.65-0.3256-9.6-1.8051-17.667-3.2878-21.234-3.9029-87.904-17.63-88.494-18.221-0.27595-0.27595-0.15913-1.3945 0.25959-2.4857 1.7986-4.687 3.3258-4.5968 103.15 6.0947 7.4722 0.80025 14.672 0.98764 16 0.41638 1.3278-0.57124 3.6481-0.92168 5.1562-0.77877 1.508 0.14292 4.3909-1.0372 6.4063-2.6226 7.6706-6.0337 1.8404-15.483-6.273-10.167-2.6623 1.7444-3.2924 1.6859-6.0706-0.56384-4.1068-3.3254-11.056-3.2485-14.138 0.15643-3.5146 3.8836-6.4999 3.5065-5.4471-0.68797 1.52-6.0564-12.274-8.3537-19.886-3.312-5.407 3.5809-6.3634 3.3564-5.3503-1.2562 0.79858-3.6359 0.5381-3.9772-3.5607-4.6651-2.4323-0.4082-22.248-3.7132-44.035-7.3445-40.388-6.7315-44.717-8.0081-47.443-13.991-1.4027-3.0786-1.2808-3.1964 2.7945-2.7001 2.3437 0.28546 8.4612 0.82477 13.595 1.1985 7.8266 0.56975 47.242 4.2408 72 6.7059 3.6667 0.36508 13.267 1.2852 21.333 2.0446 8.0667 0.75944 17.523 1.6934 21.015 2.0754 5.9875 0.65516 6.4284 0.4836 7.7604-3.0199 1.2513-3.2911 1.5612-3.4486 2.7181-1.3812 0.7182 1.2833 2.8148 2.3333 4.6591 2.3333s6.2437 1.2434 9.7766 2.7632c6.4233 2.7632 6.4233 2.7632 9.9322-0.74561 3.9334-3.9334 13.764-3.7694 18.423 0.30718 3.0102 2.6345 1.6454 3.3519 33.633-17.68 38.437-25.272 47.754-28.879 55.244-21.389 3.1581 3.1581 1.6136 4.8672-20.275 22.436-11.209 8.9971-20.986 17.965-22.914 21.02-6.8698 10.882-33.638 29.208-48.681 33.327-5.7172 1.5654-5.823 1.6841-2.6242 2.9404 1.8333 0.72002 4.8333 2.0652 6.6667 2.9893 5.2391 2.6408 22.611 8.1059 48.443 15.24 25.983 7.1755 26.105 7.2292 24.04 10.523-2.1831 3.4822-10.073 3.1534-41.816-1.7425zm154.74-9.5919c-47.264-7.3831-47.264-7.3831-50.336-3.8125-3.2517 3.7804-6.3534 3.471-5.0906-0.50773 1.9299-6.0807-16.237-9.3022-20.008-3.5478-2.7074 4.132-4.6348 4.4796-4.6348 0.83586 0-6.1482-15.63-10.723-18.876-5.5247-2.2914 3.6691-4.8256 3.6108-5.3648-0.12333-0.63552-4.4012-32.956-7.9421-42.127-4.6153-2.6224 0.95129-3.2353 0.524-4.5152-3.1476-1.6688-4.7871-8.5929-4.9419-19.836-0.44336-9.5175 3.8082-10.582 1.211-1.2813-3.1271 4.7667-2.2234 10.167-5.7046 12-7.736 13.966-15.475 38.733-23.993 51.333-17.655 18.485 9.2987 23.233 10.802 28.561 9.0433 8.1161-2.6785 14.548-0.89686 16.876 4.6748 2.2737 5.4416-2.6049 3.8938 67.563 21.436 28.417 7.1044 51.667 13.455 51.667 14.113 0 1.5412-6.2142 7.7757-7.6061 7.6309-0.58333-0.0607-22.33-3.4327-48.325-7.4934zm-426.72-172.06c-0.020417-57.667-0.020417-57.667 66.647-57.667 36.667 0 66.667 0.20835 66.667 0.46301s-4.35 2.7125-9.6667 5.4619-11.872 6.7337-14.568 8.8541c-2.6959 2.1203-6.5959 4.602-8.6667 5.5148-6.4731 2.8534-19.394 11.561-22.99 15.494-1.893 2.0702-4.4918 4.1461-5.7751 4.6131-1.2833 0.46698-2.3333 1.727-2.3333 2.8001s-1.9446 3.3357-4.3214 5.0281-6.1268 5.1707-8.3333 7.7295c-4.7536 5.5124-7.7604 8.4071-17.626 16.968-4.0603 3.5236-8.3583 7.483-9.551 8.7985-1.1927 1.3156-5.1686 5.552-8.8353 9.4144-7.083 7.4611-11.333 12.825-11.333 14.303 0 0.49521-1.7924 1.6428-3.9831 2.5502-2.1907 0.90741-3.7303 2.0588-3.4213 2.5588 0.30896 0.49991 0.01052 1.7803-0.6632 2.8453-0.75673 1.19-1.234-20.166-1.2466-55.733z" fill="#6f5765"/>
  <path d="m0 344.03c0-49.591 0.40284-52.054 7.7704-47.501 0.69043 0.42671 5.2219 1.3376 10.07 2.0241 5.2509 0.74363 10.203 2.3401 12.248 3.9487 1.8882 1.4852 6.0982 3.1001 9.3556 3.5886 3.2574 0.48848 6.2506 1.4189 6.6515 2.0676 0.40093 0.6487 1.6001 1.1795 2.6648 1.1795s4.4793 1.1225 7.588 2.4944c5.9478 2.6249 16.348 4.7817 32.985 6.841 13.847 1.7139 20.888 2.1178 93.333 5.3538 34.945 1.561 44.172 2.2206 56 4.0032 15.234 2.2959 48.462 5.8296 54.667 5.8135 31.488-0.0815 78.959-1.907 83.333-3.2045 2.9341-0.87024 19.129-1.9892 36-2.4874 22.89-0.6759 31.512-1.3917 34-2.8225 2.5576-1.4708 9.568-1.9663 30.125-2.129 27.331-0.21637 33.228-1.1904 31.676-5.2331-1.0469-2.728 1.8981-5.9627 5.4287-5.9627 1.5969 0 3.6908-0.75 4.6533-1.6667 1.4274-1.3595 1.5838-1.1168 0.84869 1.3169-1.3075 4.3288 6.9162 2.7425 10.601-2.045 1.4667-1.9053 4.8315-5.896 7.4774-8.8681s5.517-6.7538 6.3803-8.4038c1.9432-3.7142 5.6233-3.8535 8.809-0.33333 2.5589 2.8276 10.529 3.7132 12 1.3333 0.45322-0.73333 1.5386-1.3142 2.412-1.2909 0.87672 0.0235 0.54288 0.83574-0.74536 1.8137-5.2485 3.9842-2.8338 5.4889 11.722 7.3046 15.58 1.9435 18.238 1.0389 17.204-5.8555-1.939-12.931 11.875-15.482 17.296-3.1946 1.2621 2.8605 4.16 7.0662 6.4398 9.3461 3.5513 3.5513 3.9159 4.5124 2.5448 6.7078-3.6411 5.8303 8.6378 4.9821 21.398-1.4781 14.755-7.4701 26.72-10.775 36.799-10.164 4.9114 0.2977 9.9799 0.60196 11.263 0.6761 2.1752 0.12574 2.3333 3.2973 2.3333 46.801 0 46.667 0 46.667-346.67 46.667-346.66 0-346.66 0-346.66-46.64zm226.4-2.3836c-0.5154-2.6142-2.4242-3.4958-13.732-6.343-20.286-5.1076-26.392-4.7067-29.964 1.9674-2.0186 3.7717-0.78388 4.007 17.61 3.355 14.935-0.5294 17.095-0.32203 19.846 1.906 3.4086 2.7602 6.8621 2.2702 6.2399-0.88537zm-49.065-1.4786c0-2.5482-4.0383-4.6583-5.712-2.9846-1.2431 1.2431-1.1564 1.8789 0.38984 2.8564 2.5143 1.5896 5.3222 1.6572 5.3222 0.12813zm97.333-100.88c-36.496-5.6357-53.699-6.3818-59.333-2.5731-9.1584 6.1908-28.041 1.1352-28.926-7.7445-0.39192-3.9348-0.7619-4.1588-9.7407-5.8982-39.602-7.6719-96.239-19.697-97.322-20.663-4.4314-3.955 9.7105-4.3738 38.656-1.1445 62.178 6.9369 76.986 8.1369 79.07 6.4074 1.0821-0.89807 3.2679-1.4624 4.8573-1.2542 1.5894 0.20828 4.5388-0.9184 6.5543-2.5038 7.68-6.0411 1.8376-15.481-6.2867-10.158-2.7365 1.793-3.2199 1.6909-5.822-1.2305-3.6527-4.1008-8.477-4.048-13.463 0.14745-5.2902 4.4514-7.2396 4.3744-5.494-0.21712 2.6215-6.8951-9.0616-9.2202-19.212-3.8234-7.8029 4.1488-7.8335 4.1488-5.9451 0.004 2.3303-5.1145 2.1452-5.1688-42.926-12.596-37.217-6.1328-49.917-9.2284-47.555-11.591 2.2015-2.2015 12.192-2.9477 23.555-1.7593 91.902 9.6117 109.47 10.456 110.67 5.3158 0.65514-2.7955 0.92588-2.9569 1.6779-1 0.55187 1.4359 2.3231 2.3446 4.6053 2.3626 2.0397 0.0161 6.324 1.2161 9.5208 2.6667 7.277 3.302 8.4702 3.293 10.577-0.0801 1.4465-2.3162 2.702-2.6242 8.5019-2.0854 8.2031 0.76197 10.394 2.4385 8.0644 6.1696-0.90452 1.4484-1.3659 2.6334-1.0253 2.6334 1.3446 0 15.178-8.6629 35.782-22.408 36.227-24.168 41.102-26.65 48.944-24.928 8.746 1.921 7.6937 3.4716-14.656 21.598-9.9 8.0291-25.994 21.251-35.765 29.382-12.262 10.204-21.944 16.98-31.256 21.876-13.492 7.093-13.492 7.093-7.5685 8.2526 3.2577 0.63774 6.551 1.6721 7.3186 2.2986 2.8599 2.3342 24.687 9.6815 47.938 16.137 25.714 7.1391 27.362 7.8774 24.714 11.069-2.2603 2.7234-5.1062 2.5278-38.714-2.6619zm-40.76-51.15c0.40573-0.65648-0.20794-1.5565-1.3637-2-3.3287-1.2773-4.55-0.95693-4.55 1.1936 0 2.1466 4.6901 2.7862 5.9137 0.80637zm215.42 44.464c-10.633-1.6931-27.733-4.3593-38-5.9249s-21.367-3.3927-24.667-4.0603c-5.6563-1.1443-6.2089-0.98676-9.6479 2.7505-4.5484 4.943-5.0188 4.9365-5.0188-0.0687 0-7.228-16.5-9.8473-20.789-3.3003-2.7776 4.2392-4.5441 4.2525-4.5441 0.0343 0-6.536-15.441-10.361-18.976-4.7009-2.1986 3.5205-3.2266 3.3636-4.233-0.64636-1.1612-4.6265-4.9532-5.3564-27.726-5.3366-19.55 0.0171-19.604 0.009-20.4-3.163-0.91723-3.6545-9.3226-3.3702-19.384 0.65565-9.5216 3.8098-10.582 1.2119-1.2813-3.1396 4.7667-2.2302 12.357-7.0465 16.868-10.703 22.911-18.57 33.298-21.064 50.437-12.11 17.131 8.9498 19.978 9.753 25.421 7.1705 6.3044-2.9916 13.573-0.8489 15.457 4.5568 1.8498 5.3065 2.2874 5.4517 58.484 19.403 66.12 16.415 62.587 15.202 57.905 19.884-2.643 2.643-6.0716 2.4938-29.905-1.3011z" fill="#572338"/>
  <path d="m0 361.86c0-26.927 0.15247-28.744 2.3333-27.816 3.9022 1.6605 18.984 4.4748 31.667 5.9092 6.6 0.74643 15.6 1.9366 20 2.6449 4.4 0.70828 16.4 2.2731 26.667 3.4774s24.667 3.3747 32 4.8232c7.3333 1.4485 19.933 2.9288 28 3.2894 8.0667 0.36066 19.467 1.791 25.333 3.1784 5.8667 1.3875 15.167 2.8896 20.667 3.338 13.582 1.1074 22.818 2.9792 28.904 5.8583 7.6091 3.5995 29.525 4.908 29.277 1.7481-0.27156-3.4635 51.55-4.2346 55.32-0.8231 2.2907 2.073 2.7497 1.9739 7.4452-1.6075 4.604-3.5117 11.069-4.812 15.721-3.1619 4.9536 1.7574 29.488-1.8365 33.061-4.8428 2.6639-2.2415 4.76-2.967 6.97-2.4123 3.9466 0.99052 12.398-1.6329 16.096-4.9964 8.2464-7.5006 14.579-8.897 19.401-4.2777 3.6737 3.5196 3.6737 3.5196 15.406 1.8708 6.4529-0.9068 16.833-1.9147 23.066-2.2398 8.6431-0.45076 12.228-1.2386 15.101-3.3191 3.4554-2.5016 3.962-2.5525 6.105-0.61311 1.2853 1.1632 3.3057 2.1149 4.4897 2.1149s3.0105 1.2246 4.0589 2.7214c2.3036 3.2888 10.119 3.013 13.993-0.49375 1.3539-1.2252 3.3639-2.2277 4.4668-2.2277 1.1028 0 3.9492-2.419 6.3251-5.3756 3.9096-4.865 4.7447-5.2959 8.7911-4.5368 4.1513 0.77878 4.7249 0.43681 8.0183-4.7802 3.2414-5.1347 3.9258-5.5575 7.9414-4.9059 4.959 0.80472 7.3756-0.88866 7.3756-5.1682 0-2.0941 1.019-3.1071 3.6667-3.6453 2.3258-0.47277 4.2799-2.1183 5.3436-4.5 0.92229-2.0651 4.7586-6.9505 8.525-10.857 6.8648-7.1191 9.0569-7.4154 9.111-1.2315 0.0233 2.6726 4.0074 3.1464 6.3935 0.76028 1.1499-1.1499 2.3873-1.1894 4.6-0.14681 17.215 8.1112 39.851 6.5731 37.418-2.5425-2.2424-8.401 0.1916-11.687 6.3733-8.6055 3.1685 1.5797 3.7748 3.1625 6.5364 17.063 1.1132 5.6031 2.1609 7.702 4.0976 8.2085 3.85 1.0068 3.2752 6.2883-1.0646 9.7805-4.6762 3.763-2.5719 7.2643 2.8744 4.7828 1.804-0.82198 5.3439-1.1596 7.8664-0.75026 4.1842 0.679 21.885-3.6528 25.592-6.2633 0.73333-0.51628 3.7333-1.6893 6.6667-2.6066 2.9333-0.91736 6.8333-3.0323 8.6667-4.6999 4.2822-3.8951 10.092-5.0766 19.304-3.9256 7.3624 0.91987 7.3624 0.91987 7.3624 40.766s0 39.846-346.67 39.846c-346.69 0.01-346.69 0.01-346.69-28.8zm615.26 15.993c4.9914-3.8112 6.1484-5.4114 5.5433-7.6667-0.42063-1.5676-0.77298-4.2001-0.78299-5.8501-0.0376-6.1941-28.201-3.0644-29.098 3.2336-1.7781 12.486 13.177 18.805 24.338 10.283zm-330.59-138.65c-11-1.7154-28.7-4.3447-39.333-5.8427-44.117-6.2153-42.638-5.554-28.182-12.602 11.462-5.5885 12.664-5.6299 25.717-0.88508 4.1438 1.5063 21.173 6.3305 37.842 10.72 32.058 8.4425 32.048 8.439 30.679 10.654-1.1258 1.8217-2.7056 1.7008-26.721-2.0445zm-90.667-2.8176c-3.9325-0.94589-4.9753-2.361-5.8813-7.9814-0.71108-4.4112-1.3332-5.1265-4.8011-5.521-6.361-0.72349-101.03-20.152-101.77-20.884-3.4759-3.4759 4.0901-3.1321 58.372 2.6529 59.943 6.3883 54.923 5.4974 53.132 9.4292-1.8556 4.0726-0.806 5.2626 2.8947 3.2821 2.0649-1.1051 2.6062-2.2748 1.9743-4.2658-0.62389-1.9657-0.35861-2.571 0.93592-2.1358 2.8839 0.96963 1.3714 8.0505-2.3891 11.185-3.3714 2.81-3.3714 2.81 0.74544 3.6333 2.3443 0.46886 4.1169 1.6615 4.1169 2.7699 0 2.9536-2.4641 8.8072-3.6337 8.6321-0.56815-0.0851-2.233-0.4433-3.6997-0.79609zm274-2.566c-14.066-3.803-89.059-13.363-91.667-11.685-2.6239 1.688-3 1.6853-3-0.022 0-4.211-17.73-7.3702-21.618-3.8519-2.236 2.0235-2.5525 2.0257-4.07 0.0284-3.3423-4.3993-39.358-10.965-51.336-9.3583-7.0173 0.94121-7.278-0.66826-1.517-9.3657 2.6528-4.005 5.089-6.2286 6.824-6.2286 1.4841 0 4.7386-1.7913 7.2321-3.9807 6.9711-6.1207 9.4398-6.1824 21.775-0.5436 11.423 5.2215 10.849 5.1872 20.371 1.2144 2.0055-0.83674 2.2152-0.40648 1.5128 3.1053-0.73355 3.6677-0.43211 4.1626 3.0052 4.9339 2.1013 0.4715 6.2205 1.6852 9.1539 2.697 2.9333 1.0119 29.236 7.8518 58.45 15.2 57.883 14.559 56.386 14.094 54.119 16.826-1.4951 1.8014-4.9564 2.188-9.2348 1.0312zm-253.96-23.39c0.38194-0.96462 2.4251-2.9656 4.5403-4.4466 8.1084-5.6771 20.082-17.999 20.082-20.667 0-2.0501 4.9002-5.9177 19.667-15.522 10.817-7.0356 21.948-14.365 24.735-16.288 2.7878-1.9231 6.0878-4.0831 7.3333-4.8001 1.2455-0.71695 3.7646-2.2036 5.598-3.3037 4.3446-2.6069 21.566-9.6047 22.164-9.0063 1.737 1.737-63.632 53.745-77.845 61.934-6.0578 3.4904-13.258 7.631-16 9.2016-6.8802 3.9404-11.166 5.1494-10.275 2.8984zm63.289-4.595c0-4.8411 0-4.8411-5-4.0728-5 0.76828-5 0.76828 1.0996-4.8255 11.861-10.877 28.692-17.515 20.946-8.2605-1.8413 2.2-3.8065 5.5-4.3672 7.3333-3.875 12.672-12.679 19.495-12.679 9.8255zm-90.667-17.901c-4.0333-0.55926-10.333-1.6937-14-2.521-3.6667-0.82729-8.7667-1.3927-11.333-1.2564-2.5667 0.13626-6.1667-0.42009-8-1.2363-1.83-0.82-15.03-3.32-29.33-5.57-52.99-8.3318-59.817-9.9626-54.145-12.934 3.1283-1.6391 116.78 7.1264 125.81 9.7034 1.0752 0.30673 1.6667 3.093 1.6667 7.8507 0 5.1158-0.51059 7.3151-1.6667 7.1791-0.91667-0.10786-4.9667-0.6536-9-1.2129zm39.279-6.9186c-1.4462-3.7687-1.2273-9.3996 0.38768-9.9713 0.91666-0.32453 1.6667 0.35994 1.6667 1.5211 0 2.5494 6.1493 2.9376 7.0397 0.44444 0.32739-0.91667 1.0629-1.2312 1.6345-0.6989 1.2689 1.1817-1.163 4.2494-6.2279 7.8558-3.0357 2.1616-3.932 2.3307-4.5006 0.8489z" fill="#181139"/>
 </g>
</svg>
