<?xml version="1.0" encoding="UTF-8" standalone="no"?>
<svg id="svg2" xmlns:rdf="http://www.w3.org/1999/02/22-rdf-syntax-ns#" xmlns="http://www.w3.org/2000/svg" enable-background="new 0 0 515.91 728.5" xml:space="preserve" height="16" width="16" version="1.1" y="0px" x="0px" xmlns:cc="http://creativecommons.org/ns#" xmlns:dc="http://purl.org/dc/elements/1.1/" viewBox="0 0 16 16"><metadata id="metadata14"><rdf:RDF><cc:Work rdf:about=""><dc:format>image/svg+xml</dc:format><dc:type rdf:resource="http://purl.org/dc/dcmitype/StillImage"/><dc:title/></cc:Work></rdf:RDF></metadata><path id="path4" style="color:#000000;text-indent:0;block-progression:tb;enable-background:accumulate;text-transform:none" d="m0 8c0 4.4139 3.586 8 8 8 4.4139 0 8-3.5861 8-8s-3.586-8-8-8-8 3.5861-8 8zm0.79444 0c0-3.9848 3.2208-7.2056 7.2056-7.2056s7.2056 3.2208 7.2056 7.2056-3.2208 7.2056-7.2056 7.2056c-3.9848 0.001-7.2056-3.22-7.2056-7.205zm1.7278 2.0056c0 0.06097 0.06382 0.09908 0.11667 0.07778l4.5555-1.834c0.01671 0.88567 0.05968 1.6984 0.12778 2.3889l-1.7667 1.5389c-0.01819 0.01583-0.02785 0.03701-0.02778 0.06111v0.73889c0 0.06457 0.06919 0.10042 0.12222 0.07222l1.8778-0.99444 0.12222 0.80556c0.0063 0.0405 0.04796 0.07402 0.08889 0.07222l0.5-0.02222c0.03949-0.0017 0.07287-0.03299 0.07778-0.07222 0.03454-0.2615 0.06129-0.53836 0.11667-0.78889l1.8833 1c0.05705 0.0303 0.12222-0.01219 0.12222-0.07222v-0.73889c0-0.0241-0.0096-0.04528-0.02778-0.06111l-1.7711-1.545c0.0677-0.6877 0.1165-1.496 0.1333-2.3774l4.5889 1.85c0.05654 0.0228 0.11667-0.02085 0.11667-0.07778v-1.3556c0-0.0277-0.01583-0.05685-0.03889-0.07222 0 0-2.6763-1.7727-4.7111-3.1167-0.0533-0.9596-0.1469-1.7805-0.2613-2.3668-0.0581-0.2977-0.1224-0.5305-0.1945-0.7-0.036-0.0849-0.0715-0.1535-0.1166-0.2056-0.0452-0.0522-0.1025-0.0944-0.1723-0.0944-0.06985 0-0.13258 0.04221-0.17778 0.09444-0.04522 0.0522-0.08057 0.12062-0.11667 0.20556-0.0721 0.1697-0.1362 0.4075-0.1944 0.7055-0.1145 0.5871-0.2025 1.4062-0.2555 2.3667 0 0-1.5101 0.99679-4.6778 3.0889-0.0231 0.0154-0.039 0.0445-0.0389 0.0722v1.3556z" fill-rule="evenodd" overflow="visible"/></svg>
