<?xml version="1.0" encoding="UTF-8" standalone="no"?>
<svg id="svg2" xmlns:rdf="http://www.w3.org/1999/02/22-rdf-syntax-ns#" xmlns="http://www.w3.org/2000/svg" enable-background="new 0 0 100 100" xml:space="preserve" height="16" width="16" version="1.1" y="0px" x="0px" xmlns:cc="http://creativecommons.org/ns#" xmlns:dc="http://purl.org/dc/elements/1.1/" viewBox="0 0 16 16"><metadata id="metadata20"><rdf:RDF><cc:Work rdf:about=""><dc:format>image/svg+xml</dc:format><dc:type rdf:resource="http://purl.org/dc/dcmitype/StillImage"/><dc:title/></cc:Work></rdf:RDF></metadata><g id="g4" fill="#4d4d4d" transform="matrix(.18068 0 0 .18068 -1.133 -.93772)"><path id="path6" d="m25.462 40.396h-2.172l-0.01-5.371-17.009 10.302 17.049 10.181-0.01-5.154h2.152c4.182 0 5.134 2.731 5.194 4.962v36.633h9.959v-36.634c0-5.997-4.038-14.919-15.153-14.919z"/><polygon id="polygon8" points="59.935 23.994 49.637 6.986 39.453 24.034 44.464 24.024 44.464 91.948 54.424 91.948 54.424 24.005"/><path id="path10" d="m94.826 61.368-17.032-10.21 0.003 5.338h-3.872c-11.116 0-15.149 8.95-15.149 14.966v20.486h9.958v-20.486c0-1.505 0.507-5.007 5.191-5.007h3.876l0.004 5.186 17.021-10.273z"/></g></svg>
